<?xml version="1.0" standalone="no"?>
<!DOCTYPE svg PUBLIC "-//W3C//DTD SVG 20010904//EN"
 "http://www.w3.org/TR/2001/REC-SVG-20010904/DTD/svg10.dtd">
<svg version="1.0" xmlns="http://www.w3.org/2000/svg"
 width="16.000000pt" height="16.000000pt" viewBox="0 0 16.000000 16.000000"
 preserveAspectRatio="xMidYMid meet">
<metadata>
Created by potrace 1.11, written by Peter Selinger 2001-2013
</metadata>
<g transform="translate(0.000000,16.000000) scale(0.001151,-0.001151)"
fill="#000000" stroke="none">
<path d="M4648 10735 c-2 -2 -57 -6 -123 -9 -66 -3 -145 -8 -175 -11 -30 -2
-84 -7 -120 -10 -106 -9 -161 -14 -209 -21 -25 -3 -59 -7 -76 -9 -35 -3 -109
-14 -145 -21 -14 -2 -38 -6 -55 -9 -69 -10 -101 -18 -117 -26 -10 -5 -18 -8
-18 -5 0 2 -27 -4 -59 -14 -33 -10 -62 -15 -65 -12 -3 3 -6 1 -6 -5 0 -5 -6
-10 -12 -11 -26 -1 -64 -14 -236 -78 -52 -19 -101 -39 -110 -44 -10 -4 -60
-26 -112 -49 -155 -66 -166 -71 -395 -187 -280 -142 -349 -178 -355 -185 -3
-3 -45 -27 -95 -53 -49 -26 -97 -52 -105 -57 -51 -31 -171 -99 -176 -99 -3 0
-14 -9 -26 -20 -12 -11 -28 -20 -35 -20 -7 0 -13 -5 -13 -12 0 -6 -3 -9 -6 -6
-6 7 -217 -130 -222 -143 -2 -5 -7 -9 -12 -9 -13 0 -90 -53 -90 -62 0 -4 -7
-8 -15 -8 -8 0 -15 -4 -15 -8 0 -4 -12 -15 -27 -24 -63 -39 -213 -187 -260
-257 -43 -64 -109 -211 -118 -260 -3 -19 -8 -38 -10 -42 -16 -25 -24 -205 -13
-279 15 -102 21 -128 52 -224 8 -27 13 -53 10 -57 -3 -5 -33 -30 -67 -56 -34
-26 -71 -55 -82 -64 -11 -10 -56 -48 -100 -86 -118 -101 -298 -284 -360 -368
-17 -22 -38 -49 -48 -60 -64 -70 -221 -337 -280 -475 -16 -38 -74 -200 -76
-212 -1 -5 -1 -9 -2 -10 0 -2 -2 -10 -4 -18 -2 -8 -6 -25 -9 -37 -45 -182 -51
-242 -50 -558 1 -252 4 -323 18 -385 3 -13 8 -40 11 -60 11 -71 47 -194 85
-290 21 -53 108 -233 133 -275 57 -94 195 -285 206 -285 4 0 15 -14 25 -31 20
-34 257 -274 325 -329 24 -19 75 -61 115 -93 106 -88 106 -87 115 -87 4 0 15
-8 24 -18 9 -10 49 -40 89 -67 40 -27 76 -53 79 -58 3 -5 8 -8 10 -6 5 3 123
-74 127 -83 2 -5 8 -8 13 -8 5 0 38 -18 74 -40 36 -22 70 -40 75 -40 6 0 10
-4 10 -10 0 -5 5 -10 11 -10 6 0 24 -9 40 -21 16 -11 29 -17 29 -13 0 4 8 1
18 -7 25 -21 50 -34 237 -129 139 -70 445 -212 465 -216 3 0 16 -5 30 -11 14
-6 70 -29 125 -50 55 -22 109 -44 120 -48 11 -4 25 -9 30 -11 16 -5 408 -136
430 -144 11 -4 56 -18 100 -30 44 -12 96 -27 115 -33 19 -6 40 -12 45 -13 6
-1 73 -18 150 -38 77 -20 151 -39 165 -42 70 -15 258 -56 280 -61 14 -3 34 -8
45 -9 11 -2 36 -7 55 -10 19 -4 42 -8 50 -10 8 -2 31 -6 50 -9 19 -4 45 -9 58
-11 12 -2 34 -6 50 -9 15 -3 43 -8 62 -11 19 -2 46 -7 60 -9 14 -3 45 -8 70
-10 56 -7 85 -12 108 -19 9 -3 42 -7 72 -11 30 -3 71 -7 90 -10 84 -11 116
-15 135 -19 18 -3 121 -14 213 -21 18 -2 57 -6 87 -10 30 -3 83 -8 117 -10 35
-2 86 -6 113 -9 96 -10 274 -21 525 -32 272 -13 1405 -8 1405 6 0 1 29 3 65 5
147 6 320 18 455 31 39 4 88 8 110 10 22 1 40 3 40 4 0 1 18 3 40 4 22 2 69 7
105 11 36 5 81 9 100 11 19 1 35 3 35 4 0 1 14 3 30 5 17 1 53 6 80 10 28 4
61 8 75 10 14 1 59 8 100 14 41 6 89 13 105 15 17 2 46 7 65 11 19 3 49 8 65
10 17 2 30 4 30 5 0 1 15 3 34 6 19 2 46 6 60 9 14 3 42 8 61 10 19 3 46 8 60
12 14 3 34 7 45 9 11 1 31 5 45 9 14 3 34 8 45 9 94 16 189 35 270 55 44 11
209 49 240 56 11 2 53 13 93 24 40 10 73 19 75 19 47 -3 1008 301 1052 332 6
4 31 13 58 21 26 7 47 17 47 21 0 4 3 7 8 6 8 -1 15 1 162 60 63 26 118 46
123 44 4 -1 7 2 7 7 0 5 11 12 25 15 30 8 209 90 425 194 85 42 158 75 163 74
4 -1 7 2 7 7 0 5 15 15 32 22 18 7 70 35 116 61 46 26 85 48 87 48 2 0 41 23
87 50 46 28 89 54 96 58 93 52 439 294 495 346 15 14 27 23 27 20 0 -3 6 1 13
8 8 7 38 34 68 59 101 87 119 104 207 190 78 76 185 192 238 257 10 13 27 33
37 44 9 12 17 24 17 27 0 3 10 17 23 31 12 14 46 61 75 105 29 44 55 85 60 90
15 21 65 113 107 200 109 224 176 455 202 695 9 85 10 522 1 580 -19 122 -48
238 -85 335 -15 39 -28 72 -29 75 -1 8 -48 102 -64 130 -8 14 -15 27 -15 30
-4 20 -151 237 -185 272 -8 9 -31 35 -50 59 -83 103 -303 309 -445 418 -80 60
-219 158 -300 211 -177 115 -647 370 -681 370 -8 0 -14 5 -14 10 0 6 -4 10
-10 10 -5 0 -45 16 -87 36 -43 20 -100 45 -128 56 -27 11 -56 24 -62 30 -7 6
-13 8 -13 5 0 -3 -26 6 -57 20 -99 43 -117 51 -143 58 -14 4 -38 13 -55 20
-16 7 -57 23 -90 34 -33 12 -67 25 -75 28 -8 4 -22 8 -30 9 -8 2 -71 23 -140
47 -69 23 -128 44 -132 45 -4 2 -13 4 -20 7 -29 9 -198 58 -263 75 -38 10
-115 30 -170 45 -55 15 -111 28 -125 30 -14 2 -26 4 -27 6 -2 1 -7 3 -13 4 -5
1 -11 3 -12 5 -2 1 -12 3 -23 4 -11 2 -48 10 -83 19 -35 10 -82 19 -104 22
-22 3 -44 8 -49 11 -5 3 -22 7 -37 10 -15 2 -58 11 -97 19 -38 8 -85 17 -102
20 -116 19 -203 34 -233 40 -14 3 -45 8 -70 10 -25 3 -52 8 -60 10 -8 2 -39 7
-69 10 -30 4 -63 9 -75 11 -12 3 -39 7 -61 10 -22 2 -74 9 -115 14 -41 5 -97
12 -125 15 -27 3 -61 8 -75 10 -14 3 -56 7 -95 10 -38 3 -92 8 -120 11 -27 3
-69 7 -91 9 -45 4 -114 29 -154 54 -13 9 -24 14 -25 12 0 -2 -18 4 -40 13 -22
10 -69 28 -105 42 -36 14 -78 31 -95 38 -16 8 -46 19 -65 26 -19 7 -48 18 -65
25 -16 7 -73 27 -125 44 -52 18 -104 35 -115 40 -11 5 -54 18 -95 31 -41 12
-82 24 -90 27 -8 2 -16 4 -17 4 -2 0 -22 7 -45 15 -24 8 -77 24 -118 35 -119
32 -264 71 -280 75 -8 1 -50 12 -92 22 -43 11 -78 17 -78 14 0 -2 -7 1 -15 8
-8 7 -15 10 -15 7 0 -3 -17 -1 -37 4 -65 16 -77 19 -103 24 -14 3 -36 7 -50
11 -14 3 -36 7 -50 10 -32 5 -107 20 -140 28 -14 3 -43 8 -65 10 -22 3 -47 7
-55 10 -8 2 -35 8 -60 11 -123 17 -184 26 -190 30 -3 1 -36 6 -75 9 -38 4 -77
9 -85 11 -8 3 -44 7 -80 10 -36 2 -77 7 -91 10 -23 4 -82 10 -214 19 -27 3
-86 7 -130 11 -44 4 -111 9 -150 12 -84 4 -823 12 -827 8z"/>
</g>
</svg>
