<?xml version="1.0" encoding="UTF-8" standalone="no"?>
<!-- Created with Inkscape (http://www.inkscape.org/) -->

<svg
   xmlns:dc="http://purl.org/dc/elements/1.1/"
   xmlns:cc="http://creativecommons.org/ns#"
   xmlns:rdf="http://www.w3.org/1999/02/22-rdf-syntax-ns#"
   xmlns:svg="http://www.w3.org/2000/svg"
   xmlns="http://www.w3.org/2000/svg"
   xmlns:sodipodi="http://sodipodi.sourceforge.net/DTD/sodipodi-0.dtd"
   xmlns:inkscape="http://www.inkscape.org/namespaces/inkscape"
   id="svg2"
   xml:space="preserve"
   viewBox="0 0 651.88164 355.51866"
   version="1.1"
   inkscape:version="0.92.1 r"
   sodipodi:docname="food-kind-breakfurst-burrito.svg"
   width="695.34039"
   height="379.21991"><sodipodi:namedview
     pagecolor="#ffffff"
     bordercolor="#666666"
     borderopacity="1"
     objecttolerance="10"
     gridtolerance="10"
     guidetolerance="10"
     inkscape:pageopacity="0"
     inkscape:pageshadow="2"
     inkscape:window-width="1920"
     inkscape:window-height="1025"
     id="namedview4861"
     showgrid="false"
     fit-margin-top="0"
     fit-margin-left="0"
     fit-margin-right="0"
     fit-margin-bottom="0"
     inkscape:zoom="1.9012271"
     inkscape:cx="347.6702"
     inkscape:cy="189.60995"
     inkscape:window-x="0"
     inkscape:window-y="27"
     inkscape:window-maximized="1"
     inkscape:current-layer="svg2" /><defs
     id="defs6"><linearGradient
       id="linearGradient24"
       y2="17.363001"
       gradientUnits="userSpaceOnUse"
       x2="44.916"
       gradientTransform="matrix(0.57968,2.3988e-4,-3.1502e-4,-0.43104,0.01176,13.928)"
       y1="17.363001"
       x1="-0.0088"><stop
         id="stop26"
         style="stop-color:#a0a1a3"
         offset="0" /><stop
         id="stop28"
         style="stop-color:#78797a"
         offset="1" /></linearGradient><linearGradient
       id="linearGradient42"
       y2="-10.218"
       gradientUnits="userSpaceOnUse"
       x2="0.98079997"
       gradientTransform="matrix(-0.56072,0.1092,0.1468,0.41704,0.01168,13.928)"
       y1="-10.218"
       x1="-48.189999"><stop
         id="stop44"
         style="stop-color:#cccccc"
         offset="0" /><stop
         id="stop46"
         style="stop-color:#ffffff"
         offset="1" /></linearGradient><linearGradient
       id="linearGradient60"
       y2="16.211"
       gradientUnits="userSpaceOnUse"
       x2="37.632999"
       gradientTransform="matrix(0.57968,-2.6141e-4,3.6757e-4,-0.43104,-0.26864,13.928)"
       y1="16.211"
       x1="-3.6226001"><stop
         id="stop62"
         style="stop-color:#cccccc"
         offset="0" /><stop
         id="stop64"
         style="stop-color:#ffffff"
         offset="1" /></linearGradient></defs><g
     id="g10"
     transform="matrix(25,0,0,-25,-0.02944708,355.50463)"><g
       id="g12"><g
         id="g14"><g
           id="g16"><g
             id="g22"><path
               id="path30"
               style="fill:url(#linearGradient24);fill-rule:evenodd"
               d="M 23.082,10.846 C 25.363,9.553 26.336,8.014 26.008,6.233 25.66,4.452 24.105,2.956 21.344,1.749 18.559,0.53 15.371,-0.052 11.777,0.003 8.203,0.061 5.266,0.745 2.969,2.053 0.688,3.346 -0.277,4.881 0.07,6.663 c 0.328,1.785 1.883,3.277 4.664,4.484 2.786,1.223 5.961,1.805 9.536,1.746 3.574,-0.07 6.511,-0.754 8.812,-2.047 z"
               inkscape:connector-curvature="0" /></g></g></g><g
         id="g32"><g
           id="g34"><g
             id="g40"><path
               id="path48"
               style="fill:url(#linearGradient42);fill-rule:evenodd"
               d="M 23.082,10.956 C 25.383,9.733 26.355,8.288 26.008,6.62 25.66,4.956 24.105,3.553 21.344,2.421 18.559,1.284 15.383,0.745 11.809,0.803 8.215,0.858 5.277,1.499 2.996,2.721 0.695,3.94 -0.277,5.385 0.07,7.053 c 0.328,1.664 1.883,3.067 4.664,4.203 2.786,1.149 5.961,1.696 9.536,1.637 3.574,-0.07 6.511,-0.719 8.812,-1.937 z"
               inkscape:connector-curvature="0" /></g></g></g><g
         id="g50"><g
           id="g52"><g
             id="g58"><path
               id="path66"
               style="fill:url(#linearGradient60);fill-rule:evenodd"
               d="M 22.309,10.374 C 24.414,9.338 25.312,8.124 25.004,6.729 24.695,5.335 23.266,4.163 20.715,3.217 18.164,2.268 15.258,1.823 11.992,1.881 8.707,1.936 6.012,2.475 3.906,3.495 1.801,4.518 0.898,5.729 1.211,7.139 1.539,8.534 2.969,9.706 5.5,10.655 c 2.551,0.945 5.469,1.391 8.75,1.336 3.285,-0.059 5.973,-0.598 8.059,-1.617 z"
               inkscape:connector-curvature="0" /></g></g></g><path
         id="path68"
         style="fill:#fcf19f;fill-rule:evenodd"
         d="m 5.609,11.678 c -0.14,0.043 -0.363,0.075 -0.668,0.098 -0.351,-0.023 -0.625,-0.023 -0.812,0 0.07,0.258 0.293,0.355 0.672,0.289 0.304,-0.062 0.574,-0.191 0.808,-0.387 z"
         inkscape:connector-curvature="0" /><path
         id="path70"
         style="fill:#b6181f;fill-rule:evenodd"
         d="m 19.32,11.292 h 0.492 c 0.258,-0.348 0.399,-0.539 0.422,-0.582 v -0.293 h -0.527 v 0.195 c -0.047,0.281 -0.141,0.41 -0.281,0.387 -0.024,0.043 -0.082,0.074 -0.18,0.097 H 19 c -0.141,0.043 -0.129,0.075 0.035,0.098 0.215,0 0.309,0.031 0.285,0.098 z"
         inkscape:connector-curvature="0" /><path
         id="path72"
         style="fill:#b6181f;fill-rule:evenodd"
         d="m 19.426,10.225 c -0.235,0.063 -0.516,0.223 -0.848,0.485 0.024,0.105 0.082,0.128 0.176,0.062 0.094,-0.062 0.176,-0.086 0.25,-0.062 0.047,0 0.094,-0.024 0.141,-0.067 0.046,-0.043 0.105,-0.055 0.175,-0.031 0,-0.066 0.106,-0.098 0.317,-0.098 0,-0.019 -0.024,-0.066 -0.071,-0.129 -0.046,-0.043 -0.058,-0.097 -0.035,-0.16 z"
         inkscape:connector-curvature="0" /><path
         id="path74"
         style="fill:#fcf19f;fill-rule:evenodd"
         d="m 9.91,10.514 c 0.047,0.11 0.164,0.129 0.352,0.067 0.093,-0.047 0.211,-0.098 0.351,-0.164 -0.07,-0.106 -0.175,-0.118 -0.316,-0.032 -0.188,0.11 -0.317,0.153 -0.387,0.129 z"
         inkscape:connector-curvature="0" /><path
         id="path76"
         style="fill:#f6de6f;fill-rule:evenodd"
         d="m 13.855,9.835 c -0.187,-0.02 -0.339,0.035 -0.457,0.164 -0.117,0.129 -0.128,0.234 -0.035,0.324 0.024,-0.09 0.106,-0.164 0.246,-0.227 0.164,-0.066 0.246,-0.152 0.246,-0.261 z"
         inkscape:connector-curvature="0" /><path
         id="path78"
         style="fill:#f6da31;fill-rule:evenodd"
         d="m 21.082,9.479 c 0.07,-0.105 0.176,-0.148 0.316,-0.129 0,-0.062 0.106,-0.094 0.317,-0.094 l 0.316,0.094 c 0,-0.086 0.129,-0.16 0.387,-0.226 0.211,-0.043 0.297,-0.149 0.25,-0.321 -0.117,-0.043 -0.238,-0.043 -0.352,0 -0.144,0.063 -0.238,0.098 -0.285,0.098 h -0.422 c -0.164,-0.023 -0.304,0 -0.421,0.062 -0.094,0.215 -0.235,0.313 -0.422,0.293 V 9.35 l 0.105,0.391 z"
         inkscape:connector-curvature="0" /><path
         id="path80"
         style="fill:#f6de6f;fill-rule:evenodd"
         d="m 22.562,8.413 c 0.024,0.023 0.071,0.078 0.141,0.164 0.07,0.086 0.152,0.129 0.246,0.129 0,-0.129 -0.047,-0.227 -0.14,-0.293 C 22.762,8.35 22.68,8.284 22.562,8.221 Z"
         inkscape:connector-curvature="0" /><path
         id="path82"
         style="fill:#f6da31;fill-rule:evenodd"
         d="m 16.781,8.026 c 0.094,0 0.164,0.066 0.211,0.195 0.141,-0.023 0.34,-0.109 0.602,-0.258 0.234,-0.128 0.457,-0.207 0.668,-0.226 0,-0.172 -0.071,-0.27 -0.211,-0.289 C 17.84,7.424 17.629,7.491 17.418,7.639 17.18,7.768 16.969,7.835 16.781,7.835 Z"
         inkscape:connector-curvature="0" /><path
         id="path84"
         style="fill:#f6da31;fill-rule:evenodd"
         d="M 16.57,7.835 C 16.523,7.749 16.371,7.713 16.113,7.737 c -0.304,0.019 -0.492,0.019 -0.566,0 0,-0.109 0.074,-0.172 0.211,-0.195 h 0.426 V 7.448 h -0.528 c -0.168,-0.024 -0.344,0.019 -0.531,0.129 -0.187,0.105 -0.363,0.16 -0.527,0.16 v 0.098 c 0.093,0 0.164,0.062 0.211,0.191 0.164,-0.129 0.621,-0.191 1.375,-0.191 z"
         inkscape:connector-curvature="0" /><path
         id="path86"
         style="fill:#f6de6f;fill-rule:evenodd"
         d="m 12.73,7.542 h 0.106 C 12.906,7.456 12.859,7.35 12.695,7.221 12.461,7.046 12.328,6.928 12.309,6.866 12.215,6.909 12.18,6.971 12.199,7.057 v 0.098 z"
         inkscape:connector-curvature="0" /><path
         id="path88"
         style="fill:#b6181f;fill-rule:evenodd"
         d="m 15.656,7.444 h 0.528 C 16.184,7.381 16.148,7.315 16.078,7.253 15.77,6.885 15.418,6.561 15.02,6.284 h -0.211 c -0.094,0.172 -0.129,0.332 -0.106,0.48 0.117,-0.019 0.211,0.024 0.281,0.129 0.094,0.11 0.176,0.164 0.246,0.164 0.188,0.086 0.329,0.215 0.426,0.387 z"
         inkscape:connector-curvature="0" /><path
         id="path90"
         style="fill:#f6da31;fill-rule:evenodd"
         d="m 19.426,6.768 c -0.117,0 -0.27,0.051 -0.457,0.16 -0.168,0.106 -0.328,0.153 -0.496,0.129 0.093,0.239 0.281,0.313 0.566,0.227 C 19.203,7.26 19.426,7.186 19.707,7.057 19.73,6.971 19.684,6.917 19.566,6.897 19.473,6.874 19.426,6.831 19.426,6.768 Z"
         inkscape:connector-curvature="0" /><path
         id="path92"
         style="fill:#f6da31;fill-rule:evenodd"
         d="M 13.363,6.671 C 13.27,6.604 13.141,6.585 12.977,6.604 12.789,6.628 12.637,6.616 12.52,6.573 c 0.187,0.324 0.468,0.355 0.843,0.098 z"
         inkscape:connector-curvature="0" /><path
         id="path94"
         style="fill:#77a32f;fill-rule:evenodd"
         d="m 19.32,4.862 c -0.023,0 -0.175,-0.024 -0.461,-0.066 -0.14,-0.043 -0.234,0.011 -0.281,0.16 0.305,0.043 0.484,0.14 0.531,0.293 0.141,-0.067 0.246,-0.164 0.317,-0.293 -0.094,0 -0.129,-0.032 -0.106,-0.094 z"
         inkscape:connector-curvature="0" /><path
         id="path96"
         style="fill:#732f20;fill-rule:evenodd"
         d="M 15.656,4.956 V 5.053 C 15.844,5.034 16.008,4.948 16.148,4.796 L 16.395,4.378 H 16.289 C 16.008,4.526 15.797,4.721 15.656,4.956 Z"
         inkscape:connector-curvature="0" /><path
         id="path98"
         style="fill:#ffeba6;fill-rule:evenodd"
         d="M 3.109,9.835 C 3.25,9.772 3.402,9.62 3.566,9.385 3.754,9.128 3.906,8.963 4.023,8.901 4.141,9.073 4.047,9.319 3.742,9.643 3.461,9.963 3.25,10.03 3.109,9.835 2.828,9.987 2.652,10.213 2.582,10.514 2.367,10.557 2.262,10.452 2.262,10.194 2.242,9.956 2.277,9.772 2.367,9.643 3.379,8.245 5.539,7.092 8.852,6.186 H 8.957 C 9.074,5.991 9.426,5.874 10.016,5.831 h 0.105 C 10.098,5.659 9.641,5.733 8.746,6.057 7.809,6.421 7.242,6.53 7.055,6.378 6.727,6.463 6.492,6.561 6.352,6.671 6.445,6.69 6.551,6.671 6.668,6.604 6.762,6.561 6.867,6.553 6.984,6.573 6.727,6.721 6.242,6.917 5.539,7.155 4.883,7.37 4.41,7.565 4.129,7.737 4.223,7.651 4.258,7.553 4.234,7.448 3.344,8.006 2.695,8.631 2.297,9.319 c -0.469,0.777 -0.516,1.465 -0.141,2.07 0.235,0.387 0.965,0.903 2.184,1.551 1.176,0.645 2.117,1.023 2.82,1.129 1.692,0.238 3.453,0.195 5.285,-0.129 1.621,-0.301 3.067,-0.773 4.336,-1.422 -0.07,0 -0.34,0.078 -0.812,0.227 -0.469,0.152 -0.856,0.207 -1.16,0.164 -0.024,-0.196 0.148,-0.293 0.527,-0.293 -0.024,-0.043 -0.035,-0.141 -0.035,-0.289 0,-0.086 -0.043,-0.168 -0.125,-0.242 0.156,0.113 0.324,0.148 0.512,0.113 0.21,-0.067 0.339,-0.207 0.386,-0.422 -0.234,0.109 -0.386,0.172 -0.457,0.195 -0.117,0.02 -0.281,-0.023 -0.492,-0.129 0.023,-0.086 0.082,-0.109 0.176,-0.066 0.14,0.086 0.258,0.109 0.351,0.066 0.024,-0.129 -0.047,-0.207 -0.211,-0.226 -0.187,-0.043 -0.293,-0.086 -0.316,-0.129 0,-0.129 0.059,-0.16 0.176,-0.098 0.047,0.028 0.082,0.055 0.105,0.082 -0.058,-0.09 -0.199,-0.191 -0.422,-0.308 -0.328,-0.192 -0.562,-0.246 -0.707,-0.16 0.024,-0.215 -0.058,-0.379 -0.246,-0.485 -0.047,-0.023 -0.246,-0.086 -0.597,-0.195 -0.071,0.066 -0.082,0.164 -0.036,0.293 0.024,0.105 -0.023,0.172 -0.14,0.191 -0.281,-0.238 -0.567,-0.301 -0.848,-0.191 -0.14,-0.024 -0.199,-0.086 -0.176,-0.195 0.047,-0.153 0.036,-0.247 -0.035,-0.29 -0.14,-0.023 -0.246,0 -0.316,0.063 -0.094,0.086 -0.164,0.129 -0.215,0.129 0.144,-0.149 0.074,-0.215 -0.211,-0.192 0.07,-0.109 0.098,-0.218 0.07,-0.324 -0.019,-0.109 -0.011,-0.195 0.039,-0.258 0.258,0 0.364,0.098 0.317,0.289 0.14,-0.019 0.164,-0.117 0.07,-0.289 C 11.859,9.378 11.941,9.28 12.199,9.26 12.012,9.108 11.719,8.893 11.316,8.612 10.941,8.374 10.578,8.213 10.227,8.128 c 0.14,-0.516 0.14,-0.872 0,-1.067 0.093,0.024 0.246,0.043 0.457,0.067 0.164,0.019 0.246,0.093 0.246,0.222 0.023,-0.258 0.234,-0.32 0.636,-0.191 0,0.043 -0.05,0.105 -0.144,0.191 -0.07,0.067 -0.094,0.164 -0.07,0.293 0.05,0.11 0.082,0.074 0.105,-0.097 0.023,-0.196 0.059,-0.29 0.109,-0.29 0.188,0.086 1.137,0.981 2.852,2.68 1.199,1.207 2.516,1.692 3.949,1.453 C 16.742,11.35 15.195,10.452 13.73,8.694 13.758,8.76 13.762,8.831 13.75,8.905 13.703,8.838 13.504,8.612 13.152,8.225 12.938,7.967 12.727,7.803 12.516,7.741 12.68,7.612 12.832,7.643 12.977,7.838 13.16,8.096 13.316,8.225 13.43,8.225 13.34,8.03 13.141,7.803 12.832,7.546 H 12.727 C 12.539,7.565 12.34,7.503 12.129,7.35 11.801,7.116 11.613,6.987 11.562,6.963 c 0.094,-0.042 0.204,-0.042 0.321,0 0.183,0.129 0.293,0.196 0.316,0.196 V 7.061 C 12.055,6.846 11.715,6.737 11.176,6.737 10.59,6.737 10.234,6.686 10.117,6.577 8.637,6.921 6.957,7.44 5.078,8.128 5.102,8.19 5.16,8.202 5.254,8.159 5.395,8.096 5.516,8.085 5.609,8.128 4.973,8.366 4.492,8.557 4.164,8.71 3.578,8.963 3.227,9.342 3.109,9.835 Z m 3.032,3.461 c 0.632,0.171 1.55,0.246 2.746,0.222 0.355,0 1.422,-0.043 3.207,-0.129 -0.656,0.41 -1.668,0.614 -3.032,0.614 -1.429,0 -2.406,-0.235 -2.921,-0.707 z m -1.34,-1.231 c -0.375,0.066 -0.602,-0.031 -0.672,-0.289 0.191,-0.023 0.461,-0.023 0.812,0 0.305,-0.023 0.532,-0.055 0.672,-0.098 -0.238,0.196 -0.508,0.325 -0.812,0.387 z m 5.812,-1.648 c -0.14,0.066 -0.258,0.117 -0.351,0.164 -0.188,0.062 -0.305,0.043 -0.352,-0.067 0.07,0.02 0.199,-0.019 0.387,-0.129 0.141,-0.086 0.246,-0.074 0.316,0.032 z M 9.91,7.737 C 9.793,7.671 9.641,7.628 9.453,7.608 9.289,7.608 9.156,7.553 9.062,7.448 9.465,7.401 9.781,7.53 10.016,7.835 9.969,7.878 9.875,7.909 9.734,7.928 9.594,7.975 9.512,7.94 9.488,7.835 H 9.734 C 9.828,7.811 9.887,7.78 9.91,7.737 Z m 5.531,2.777 c 0.215,0.02 0.352,0.117 0.422,0.293 -0.422,-0.176 -0.715,-0.359 -0.879,-0.551 -0.211,-0.214 -0.058,-0.128 0.457,0.258 z"
         inkscape:connector-curvature="0" /><path
         id="path100"
         style="fill:#fdf8cf;fill-rule:evenodd"
         d="M 5.082,7.155 5.613,7.026 C 5.848,6.96 5.988,6.874 6.035,6.768 5.516,6.854 5.199,6.983 5.082,7.155 Z"
         inkscape:connector-curvature="0" /><path
         id="path102"
         style="fill:#fdf8cf;fill-rule:evenodd"
         d="M 7.16,6.378 C 7.586,6.358 7.938,6.229 8.219,5.991 L 7.652,6.151 C 7.418,6.217 7.254,6.292 7.16,6.378 Z"
         inkscape:connector-curvature="0" /><path
         id="path104"
         style="fill:#fdf8cf;fill-rule:evenodd"
         d="m 16.887,12.518 c 0.328,-0.066 1.211,-0.344 2.644,-0.84 -0.304,0.043 -0.621,0.043 -0.953,0 0.117,0.129 -0.094,0.258 -0.633,0.387 -0.613,0.152 -0.965,0.301 -1.058,0.453 z"
         inkscape:connector-curvature="0" /><path
         id="path106"
         style="fill:#fadf88;fill-rule:evenodd"
         d="m 19.32,11.292 c -0.211,0.019 -0.39,-0.012 -0.531,-0.098 h -0.633 c -0.187,-0.043 -0.258,-0.141 -0.211,-0.293 -1.222,0 -2.359,-0.656 -3.418,-1.969 C 13.328,7.448 12.309,6.596 11.461,6.378 11.578,6.249 11.848,6.163 12.273,6.12 12.789,6.1 13.117,6.057 13.258,5.991 13.211,5.819 13.246,5.733 13.363,5.733 13.363,5.585 13.188,5.549 12.836,5.635 12.859,5.487 13.094,5.456 13.539,5.542 L 13.434,5.249 c 0.046,-0.02 0.152,0 0.316,0.066 0.094,0.043 0.129,-0.012 0.105,-0.164 C 13.504,5.194 13.246,5.237 13.082,5.28 12.824,5.366 12.637,5.487 12.52,5.635 12.449,5.635 12.41,5.573 12.41,5.444 10.555,6.303 8.184,7.069 5.293,7.737 5.645,7.479 6.223,7.21 7.02,6.928 7.938,6.628 8.547,6.378 8.852,6.186 5.539,7.092 3.379,8.245 2.367,9.643 2.277,9.772 2.242,9.956 2.266,10.194 c 0,0.258 0.101,0.363 0.316,0.32 C 2.652,10.213 2.828,9.987 3.109,9.835 3.227,9.342 3.578,8.963 4.168,8.706 4.496,8.557 4.977,8.362 5.613,8.124 5.52,8.081 5.402,8.092 5.262,8.155 5.164,8.198 5.109,8.186 5.086,8.124 6.965,7.436 8.645,6.917 10.121,6.573 c 0.121,0.109 0.473,0.16 1.059,0.16 0.539,0 0.882,0.109 1.023,0.324 -0.023,-0.086 0.012,-0.148 0.106,-0.195 0.023,0.066 0.152,0.184 0.386,0.355 0.164,0.129 0.211,0.239 0.141,0.325 0.309,0.257 0.508,0.484 0.598,0.679 v 0.098 c 1.55,2.004 3.195,3.023 4.933,3.066 -1.429,0.239 -2.746,-0.246 -3.945,-1.453 -1.715,-1.699 -2.664,-2.594 -2.856,-2.679 -0.046,0 -0.082,0.093 -0.105,0.289 -0.023,0.171 -0.059,0.207 -0.106,0.097 -0.023,-0.129 0,-0.226 0.071,-0.293 C 11.52,7.26 11.566,7.198 11.566,7.155 11.168,7.026 10.957,7.088 10.934,7.346 10.934,7.217 10.852,7.143 10.688,7.124 10.477,7.1 10.324,7.081 10.23,7.057 c 0.141,0.196 0.141,0.551 0,1.067 0.352,0.086 0.715,0.25 1.09,0.484 0.399,0.281 0.696,0.496 0.883,0.648 -0.258,0.02 -0.34,0.118 -0.246,0.29 0.094,0.171 0.07,0.269 -0.07,0.289 0.047,-0.192 -0.059,-0.289 -0.321,-0.289 -0.046,0.062 -0.058,0.148 -0.035,0.257 0.024,0.11 0,0.215 -0.07,0.325 0.285,-0.024 0.355,0.043 0.211,0.191 0.047,0 0.117,-0.043 0.215,-0.129 0.07,-0.062 0.175,-0.086 0.316,-0.062 0.07,0.043 0.082,0.136 0.035,0.289 -0.023,0.109 0.035,0.171 0.176,0.195 0.281,-0.109 0.563,-0.047 0.844,0.191 0.121,-0.019 0.164,-0.086 0.144,-0.191 -0.047,-0.129 -0.035,-0.227 0.032,-0.293 0.355,0.109 0.554,0.172 0.601,0.195 0.188,0.106 0.27,0.27 0.246,0.485 0.141,-0.086 0.375,-0.032 0.707,0.16 0.219,0.117 0.364,0.219 0.422,0.308 -0.023,-0.027 -0.058,-0.054 -0.105,-0.082 -0.117,-0.062 -0.176,-0.031 -0.176,0.098 0.023,0.043 0.129,0.086 0.316,0.129 0.164,0.019 0.235,0.098 0.211,0.226 -0.094,0.043 -0.211,0.02 -0.351,-0.066 -0.094,-0.043 -0.153,-0.019 -0.176,0.066 0.211,0.106 0.375,0.149 0.492,0.129 0.07,-0.023 0.223,-0.086 0.457,-0.195 -0.047,0.215 -0.176,0.356 -0.387,0.422 -0.183,0.035 -0.355,0 -0.511,-0.113 0.082,0.074 0.125,0.152 0.125,0.242 0,0.148 0.011,0.246 0.035,0.289 -0.379,0 -0.555,0.098 -0.531,0.293 0.308,0.043 0.695,-0.012 1.164,-0.164 0.468,-0.149 0.742,-0.227 0.812,-0.227 h 0.106 c 0.093,-0.148 0.445,-0.301 1.054,-0.453 0.543,-0.125 0.754,-0.254 0.637,-0.387 0.328,0.043 0.645,0.043 0.949,0 0.071,-0.105 0.199,-0.14 0.387,-0.093 0.023,-0.047 0.117,-0.121 0.285,-0.227 0.141,-0.066 0.149,-0.121 0.031,-0.164 -0.07,0.066 -0.211,0.098 -0.422,0.098 H 19.32 Z M 3.109,9.835 C 3.25,10.03 3.461,9.963 3.742,9.643 4.047,9.319 4.141,9.073 4.023,8.901 3.906,8.963 3.754,9.124 3.566,9.385 3.402,9.62 3.25,9.772 3.109,9.835 Z m 9.375,0.261 C 12.41,10.03 12.387,9.944 12.41,9.835 c 0.168,0 0.238,-0.063 0.215,-0.192 0.398,0.02 0.574,0.149 0.527,0.387 -0.093,0.023 -0.129,0.086 -0.105,0.195 -0.211,0 -0.352,0.031 -0.422,0.098 0,-0.024 -0.047,-0.098 -0.141,-0.227 z m 0.914,-0.097 c 0.118,-0.129 0.27,-0.184 0.457,-0.164 0,0.109 -0.082,0.195 -0.246,0.261 -0.14,0.063 -0.222,0.137 -0.246,0.227 -0.093,-0.09 -0.082,-0.195 0.035,-0.324 z"
         inkscape:connector-curvature="0" /><path
         id="path108"
         style="fill:#d4ac35;fill-rule:evenodd"
         d="M 4.234,7.444 C 4.258,7.553 4.223,7.651 4.129,7.737 4.414,7.561 4.883,7.37 5.539,7.155 6.246,6.917 6.727,6.721 6.984,6.569 6.867,6.549 6.762,6.561 6.668,6.604 6.551,6.667 6.445,6.69 6.352,6.667 6.258,6.733 6.152,6.764 6.035,6.764 5.988,6.874 5.848,6.96 5.613,7.022 L 5.082,7.151 4.73,7.346 C 4.566,7.436 4.402,7.467 4.234,7.444 Z"
         inkscape:connector-curvature="0" /><path
         id="path110"
         style="fill:#ffffff;fill-rule:evenodd"
         d="m 15.867,10.807 c -0.07,-0.172 -0.211,-0.269 -0.422,-0.293 -0.519,-0.386 -0.672,-0.472 -0.461,-0.258 0.164,0.192 0.457,0.379 0.883,0.551 z"
         inkscape:connector-curvature="0" /><path
         id="path112"
         style="fill:#ffffff;fill-rule:evenodd"
         d="m 13.434,8.221 c -0.118,0 -0.27,-0.129 -0.457,-0.386 -0.141,-0.196 -0.293,-0.227 -0.457,-0.098 0.21,0.062 0.421,0.226 0.632,0.484 0.352,0.387 0.555,0.614 0.602,0.68 0.023,-0.133 -0.012,-0.25 -0.109,-0.355 L 13.434,8.319 Z"
         inkscape:connector-curvature="0" /><path
         id="path114"
         style="fill:#ffffff;fill-rule:evenodd"
         d="m 12.199,7.155 c -0.019,0 -0.129,-0.067 -0.316,-0.195 -0.117,-0.043 -0.223,-0.043 -0.317,0 0.047,0.023 0.235,0.152 0.567,0.386 0.211,0.153 0.41,0.219 0.597,0.196 z"
         inkscape:connector-curvature="0" /><path
         id="path116"
         style="fill:#f5cd53;fill-rule:evenodd"
         d="M 8.852,6.186 C 8.547,6.378 7.938,6.628 7.02,6.928 6.223,7.21 5.645,7.479 5.293,7.737 8.184,7.069 10.555,6.303 12.41,5.444 c 0,0.125 0.035,0.191 0.106,0.191 C 12.633,5.487 12.824,5.366 13.082,5.28 13.246,5.237 13.504,5.194 13.855,5.151 13.879,5.303 13.844,5.358 13.75,5.315 13.586,5.249 13.48,5.225 13.434,5.249 l 0.105,0.289 c -0.445,-0.086 -0.68,-0.051 -0.703,0.097 0.352,-0.086 0.527,-0.054 0.527,0.098 -0.117,0 -0.152,0.086 -0.105,0.258 -0.141,0.066 -0.469,0.109 -0.988,0.129 -0.422,0.043 -0.692,0.129 -0.809,0.258 0.844,0.218 1.867,1.066 3.066,2.554 1.055,1.313 2.196,1.969 3.418,1.969 -0.047,0.152 0.024,0.25 0.211,0.293 h 0.317 c -0.024,-0.152 -0.082,-0.227 -0.176,-0.227 -0.117,0 -0.199,-0.023 -0.246,-0.066 L 17.84,10.612 h -0.11 c -0.117,0.105 -0.222,0.172 -0.316,0.195 C 17.133,10.698 16.922,10.534 16.781,10.323 16.688,10.171 16.488,10.01 16.184,9.835 16.086,9.944 16.02,9.901 15.973,9.71 15.922,9.514 15.922,9.362 15.973,9.256 15.711,9.299 15.57,9.233 15.547,9.061 c 0,-0.148 -0.07,-0.238 -0.211,-0.258 -0.07,0.02 -0.082,0.043 -0.035,0.067 0.023,0.082 0.035,0.148 0.035,0.191 C 14.867,8.823 14.523,8.393 14.312,7.768 14.078,7.057 14.137,6.467 14.492,5.991 14.656,5.432 14.938,5.022 15.336,4.764 15.312,4.698 15.348,4.667 15.441,4.667 15.465,4.581 15.535,4.483 15.656,4.378 L 15.547,4.182 c -0.047,0 -0.07,0.024 -0.07,0.067 L 15.441,4.378 C 15.371,4.354 15.312,4.323 15.266,4.28 c -0.024,-0.043 0,-0.074 0.07,-0.098 -0.117,-0.105 -0.164,-0.086 -0.141,0.067 0,0.148 0.047,0.257 0.141,0.32 -0.328,-0.043 -0.809,0.035 -1.445,0.227 -0.727,0.238 -1.254,0.355 -1.586,0.355 -0.047,-0.105 0,-0.184 0.144,-0.227 0.113,-0.019 0.176,-0.074 0.176,-0.16 -0.117,-0.019 -0.238,-0.011 -0.352,0.032 -0.117,0.042 -0.214,0.066 -0.285,0.066 -0.07,0.043 -0.082,0.117 -0.035,0.226 0.024,0.106 0,0.192 -0.07,0.258 -0.281,-0.023 -0.586,0.043 -0.918,0.192 -0.352,0.195 -0.633,0.293 -0.844,0.293 H 10.016 C 9.711,6.046 9.355,6.163 8.957,6.186 Z m 3.668,0.387 c 0.117,0.043 0.269,0.055 0.457,0.031 0.164,-0.019 0.293,0 0.386,0.067 -0.375,0.257 -0.656,0.226 -0.843,-0.098 z"
         inkscape:connector-curvature="0" /><path
         id="path118"
         style="fill:#f6da31;fill-rule:evenodd"
         d="M 19.145,10.643 C 19.094,10.686 19.051,10.71 19,10.71 c -0.047,0.086 -0.188,0.148 -0.422,0.191 -0.07,0 -0.152,-0.02 -0.246,-0.063 -0.047,-0.019 -0.105,0 -0.176,0.063 h -0.105 c 0.047,0.047 0.129,0.066 0.246,0.066 0.094,0 0.152,0.075 0.176,0.227 h 0.316 c 0,-0.109 0.07,-0.172 0.211,-0.195 h 0.426 c 0.14,0.023 0.234,-0.106 0.281,-0.387 H 19.32 C 19.25,10.588 19.191,10.6 19.145,10.643 Z"
         inkscape:connector-curvature="0" /><path
         id="path120"
         style="fill:#77a32f;fill-rule:evenodd"
         d="m 19.426,10.999 h -0.422 c -0.145,0.023 -0.215,0.086 -0.215,0.195 0.141,0.086 0.32,0.117 0.531,0.098 0.024,-0.067 -0.07,-0.098 -0.281,-0.098 -0.168,-0.02 -0.18,-0.055 -0.039,-0.098 h 0.25 c 0.094,-0.019 0.152,-0.054 0.176,-0.097 z"
         inkscape:connector-curvature="0" /><path
         id="path122"
         style="fill:#732f20;fill-rule:evenodd"
         d="m 19.812,11.292 c 0.211,0 0.352,-0.036 0.422,-0.098 v -0.195 c 0,-0.043 0.024,-0.106 0.071,-0.192 0.023,-0.047 0,-0.078 -0.071,-0.097 -0.023,0.043 -0.164,0.234 -0.422,0.582 z"
         inkscape:connector-curvature="0" /><path
         id="path124"
         style="fill:#77a32f;fill-rule:evenodd"
         d="m 18.578,10.71 c 0.328,-0.258 0.613,-0.422 0.848,-0.485 h -0.422 c -0.024,0.063 -0.129,0.172 -0.316,0.324 -0.168,0.129 -0.204,0.247 -0.11,0.352 0.238,-0.043 0.379,-0.105 0.426,-0.191 -0.074,-0.024 -0.152,0 -0.25,0.062 -0.094,0.066 -0.152,0.043 -0.176,-0.062 z"
         inkscape:connector-curvature="0" /><path
         id="path126"
         style="fill:#b8952e;fill-rule:evenodd"
         d="m 20.867,10.323 -0.211,-0.098 c -0.094,0 -0.187,0.043 -0.281,0.129 -0.07,0.063 -0.152,0.055 -0.246,-0.031 0.023,-0.067 0.129,-0.133 0.316,-0.195 0.164,-0.043 0.235,-0.141 0.211,-0.293 -0.023,0 -0.094,0.054 -0.211,0.164 -0.093,0.062 -0.164,0.043 -0.211,-0.067 -0.023,0.043 -0.152,0.121 -0.386,0.227 -0.188,0.109 -0.239,0.195 -0.141,0.258 h 0.527 v 0.293 c 0.071,0.019 0.094,0.05 0.071,0.097 -0.047,0.082 -0.071,0.149 -0.071,0.192 0.211,0 0.411,-0.067 0.598,-0.192 0.211,-0.152 0.387,-0.238 0.527,-0.261 0.024,-0.063 0.141,-0.192 0.356,-0.387 0.14,-0.129 0.176,-0.27 0.105,-0.418 0.024,-0.086 0.012,-0.176 -0.035,-0.258 -0.051,-0.066 -0.07,-0.141 -0.07,-0.227 -0.215,0 -0.32,0.032 -0.32,0.098 0.07,0.192 0.093,0.344 0.07,0.449 -0.07,0.153 -0.125,0.293 -0.176,0.422 -0.164,0 -0.269,-0.066 -0.316,-0.195 -0.071,0.023 -0.082,0.066 -0.035,0.129 0.05,0.066 0.027,0.121 -0.071,0.164 z"
         inkscape:connector-curvature="0" /><path
         id="path128"
         style="fill:#f6de6f;fill-rule:evenodd"
         d="m 18.156,10.901 c 0.071,-0.063 0.129,-0.082 0.176,-0.063 0.094,0.043 0.176,0.063 0.246,0.063 -0.094,-0.105 -0.058,-0.223 0.11,-0.352 0.187,-0.152 0.292,-0.261 0.316,-0.324 -0.047,0.063 -0.203,0.16 -0.461,0.289 -0.211,0.129 -0.34,0.258 -0.387,0.387 z"
         inkscape:connector-curvature="0" /><path
         id="path130"
         style="fill:#77a32f;fill-rule:evenodd"
         d="m 18.367,10.225 c 0.024,-0.023 0.117,-0.066 0.285,-0.129 0.114,-0.043 0.2,-0.097 0.246,-0.164 C 18.781,9.913 18.766,9.881 18.863,9.835 18.957,9.753 19.004,9.686 19.004,9.643 h -0.106 c -0.023,0.086 -0.132,0.172 -0.316,0.258 -0.144,0.086 -0.215,0.195 -0.215,0.324 z"
         inkscape:connector-curvature="0" /><path
         id="path132"
         style="fill:#f6da31;fill-rule:evenodd"
         d="m 17.945,10.096 c -0.422,0.235 -0.812,0.313 -1.164,0.227 0.141,0.215 0.352,0.375 0.637,0.484 0.094,-0.023 0.199,-0.09 0.316,-0.195 l 0.282,-0.227 c 0.117,-0.086 0.234,-0.14 0.351,-0.16 0,-0.129 0.071,-0.238 0.211,-0.324 0.188,-0.086 0.293,-0.172 0.317,-0.258 0.117,-0.109 0.117,-0.172 0,-0.195 -0.399,0.301 -0.715,0.515 -0.95,0.648 z"
         inkscape:connector-curvature="0" /><path
         id="path134"
         style="fill:#77a32f;fill-rule:evenodd"
         d="M 17.84,9.87 C 17.531,9.889 17.32,9.846 17.203,9.741 17.039,9.76 16.875,9.753 16.711,9.71 16.5,9.663 16.359,9.643 16.289,9.643 c -0.07,0.067 -0.105,0.129 -0.105,0.192 0.304,0.175 0.504,0.336 0.597,0.488 0.352,0.086 0.742,0.008 1.164,-0.227 0.235,-0.133 0.551,-0.347 0.95,-0.648 V 9.35 c -0.282,0 -0.422,-0.031 -0.422,-0.094 -0.141,0 -0.375,0.051 -0.703,0.161 -0.258,0.086 -0.52,0.097 -0.778,0.031 0.047,0.086 0.176,0.117 0.387,0.098 0.258,-0.024 0.414,-0.024 0.461,0 h 0.422 c 0.047,0.195 -0.094,0.3 -0.422,0.324 z M 17.098,9.835 c 0.164,0.175 0.234,0.336 0.214,0.488 C 17.242,10.19 17.062,10.085 16.781,9.999 16.57,9.956 16.477,9.87 16.5,9.741 c 0,0.086 0.082,0.117 0.246,0.094 0.211,-0.02 0.328,-0.02 0.352,0 z"
         inkscape:connector-curvature="0" /><path
         id="path136"
         style="fill:#77a32f;fill-rule:evenodd"
         d="m 19.32,10.612 h 0.387 v -0.195 c -0.094,-0.063 -0.047,-0.149 0.141,-0.258 0.234,-0.106 0.363,-0.18 0.386,-0.227 V 9.838 c -0.093,0 -0.187,0.032 -0.281,0.094 -0.094,0.067 -0.176,0.098 -0.246,0.098 -0.047,0.109 -0.109,0.172 -0.18,0.195 -0.019,0.063 -0.011,0.117 0.035,0.16 0.051,0.067 0.071,0.11 0.071,0.129 -0.207,0 -0.313,0.032 -0.313,0.098 z"
         inkscape:connector-curvature="0" /><path
         id="path138"
         style="fill:#fcf19f;fill-rule:evenodd"
         d="M 17.383,9.546 C 17.168,9.565 17.039,9.534 16.992,9.448 16.945,9.362 16.805,9.296 16.57,9.256 16.641,9.147 16.746,8.995 16.887,8.803 16.629,8.952 16.5,9.104 16.5,9.256 c -0.164,-0.132 -0.34,-0.132 -0.527,0 -0.047,0.106 -0.047,0.258 0,0.45 0.047,0.195 0.117,0.238 0.211,0.129 0,-0.063 0.035,-0.129 0.105,-0.192 0.07,0 0.211,0.02 0.422,0.063 0.164,0.043 0.332,0.054 0.496,0.035 0.211,0.043 0.422,0.008 0.633,-0.098 V 9.546 c -0.047,-0.024 -0.199,-0.024 -0.457,0 z"
         inkscape:connector-curvature="0" /><path
         id="path140"
         style="fill:#fcf19f;fill-rule:evenodd"
         d="M 15.336,8.803 V 8.706 C 15.219,8.682 15.125,8.596 15.055,8.448 14.984,8.319 14.902,8.245 14.809,8.221 c -0.258,0 -0.422,-0.289 -0.497,-0.871 -0.07,-0.582 -0.011,-1.035 0.18,-1.359 -0.351,0.476 -0.414,1.066 -0.18,1.777 0.215,0.625 0.555,1.055 1.024,1.293 0,-0.043 -0.012,-0.109 -0.035,-0.191 -0.047,-0.024 -0.035,-0.047 0.035,-0.067 z"
         inkscape:connector-curvature="0" /><path
         id="path142"
         style="fill:#d4ac35;fill-rule:evenodd"
         d="M 7.055,6.378 C 7.242,6.53 7.809,6.421 8.746,6.057 9.641,5.733 10.098,5.659 10.121,5.831 c 0.211,0 0.492,-0.098 0.848,-0.293 0.328,-0.149 0.633,-0.215 0.914,-0.192 0.07,-0.066 0.094,-0.152 0.07,-0.258 C 11.906,4.979 11.918,4.905 11.988,4.862 9.852,5.53 8.594,5.905 8.219,5.991 7.938,6.229 7.586,6.358 7.164,6.378 Z"
         inkscape:connector-curvature="0" /><path
         id="path144"
         style="fill:#b6181f;fill-rule:evenodd"
         d="m 17.098,9.835 c -0.02,-0.02 -0.141,-0.02 -0.352,0 C 16.582,9.858 16.5,9.827 16.5,9.741 c -0.023,0.129 0.07,0.215 0.281,0.258 0.285,0.086 0.461,0.191 0.531,0.324 0.02,-0.152 -0.05,-0.313 -0.214,-0.488 z"
         inkscape:connector-curvature="0" /><path
         id="path146"
         style="fill:#f6de6f;fill-rule:evenodd"
         d="m 20.656,10.225 c 0.168,-0.043 0.215,-0.172 0.145,-0.39 C 20.754,9.6 20.668,9.534 20.555,9.643 20.527,9.772 20.422,9.835 20.234,9.835 v 0.097 c 0.047,0.11 0.118,0.129 0.215,0.067 0.117,-0.11 0.184,-0.164 0.211,-0.164 0.024,0.152 -0.047,0.25 -0.211,0.293 -0.191,0.062 -0.297,0.128 -0.32,0.195 0.098,0.086 0.18,0.094 0.25,0.031 0.09,-0.086 0.187,-0.129 0.277,-0.129 z"
         inkscape:connector-curvature="0" /><path
         id="path148"
         style="fill:#ffeba6;fill-rule:evenodd"
         d="m 12.625,9.643 c 0.023,0.129 -0.047,0.192 -0.215,0.192 -0.023,0.109 0,0.195 0.074,0.261 0.094,0.129 0.141,0.203 0.141,0.227 0.07,-0.067 0.211,-0.098 0.422,-0.098 -0.024,-0.109 0.012,-0.172 0.105,-0.195 0.047,-0.238 -0.129,-0.367 -0.527,-0.387 z"
         inkscape:connector-curvature="0" /><path
         id="path150"
         style="fill:#fdf8cf;fill-rule:evenodd"
         d="m 19.707,10.03 c 0.07,0 0.152,-0.031 0.246,-0.098 C 20.047,9.87 20.141,9.835 20.234,9.835 20.215,9.62 20.047,9.588 19.742,9.741 19.438,9.87 19.426,9.963 19.707,10.03 Z"
         inkscape:connector-curvature="0" /><path
         id="path152"
         style="fill:#fcf19f;fill-rule:evenodd"
         d="M 20.59,9.479 C 20.656,9.393 20.719,9.35 20.766,9.35 V 9.256 c 0.187,0.02 0.328,-0.078 0.422,-0.293 H 20.977 C 20.953,9.092 20.883,9.124 20.762,9.061 20.645,8.995 20.613,8.909 20.656,8.803 c -0.164,0.043 -0.199,0.098 -0.105,0.16 0.14,0.086 0.211,0.153 0.211,0.196 -0.02,0.086 -0.071,0.117 -0.141,0.097 -0.07,-0.066 -0.129,-0.097 -0.176,-0.097 -0.093,0 -0.082,0.043 0.035,0.129 0.141,0.062 0.129,0.117 -0.035,0.16 0.024,0.109 0.071,0.117 0.145,0.031 z"
         inkscape:connector-curvature="0" /><path
         id="path154"
         style="fill:#77a32f;fill-rule:evenodd"
         d="m 21.715,9.256 c 0,0.086 0.023,0.161 0.07,0.223 0.047,0.086 0.059,0.172 0.035,0.262 h 0.211 V 9.35 Z"
         inkscape:connector-curvature="0" /><path
         id="path156"
         style="fill:#f6de6f;fill-rule:evenodd"
         d="m 18.578,4.956 c 0.047,-0.149 0.141,-0.203 0.281,-0.16 0.286,0.042 0.438,0.066 0.461,0.066 L 18.93,4.635 C 18.766,4.549 18.648,4.46 18.578,4.378 c 0.027,0.082 0.012,0.171 -0.035,0.257 -0.047,0.086 -0.07,0.161 -0.07,0.227 -0.024,0.062 0.011,0.094 0.105,0.094 z"
         inkscape:connector-curvature="0" /><path
         id="path158"
         style="fill:#f6de6f;fill-rule:evenodd"
         d="m 19.531,9.061 c -0.445,0.172 -0.801,0.235 -1.058,0.195 0,0.063 0.144,0.094 0.422,0.094 v 0.098 c 0.121,0.019 0.121,0.086 0,0.195 h 0.109 C 19.238,9.514 19.449,9.479 19.637,9.546 19.543,9.479 19.52,9.393 19.566,9.288 19.59,9.202 19.578,9.124 19.531,9.061 Z"
         inkscape:connector-curvature="0" /><path
         id="path160"
         style="fill:#77a32f;fill-rule:evenodd"
         d="m 16.887,8.706 c 0.14,-0.086 0.211,-0.149 0.211,-0.196 0.234,-0.019 0.472,0.036 0.707,0.164 0.14,0.063 0.328,0.161 0.562,0.289 V 8.901 C 18.25,8.768 18.145,8.706 18.051,8.706 L 17.629,8.51 C 17.465,8.424 17.289,8.393 17.102,8.417 17.031,8.522 16.957,8.588 16.887,8.608 Z"
         inkscape:connector-curvature="0" /><path
         id="path162"
         style="fill:#f6da31;fill-rule:evenodd"
         d="m 16.887,8.608 c 0.07,-0.02 0.14,-0.086 0.211,-0.191 0.187,-0.024 0.367,0.007 0.531,0.093 l 0.422,0.196 C 18.215,8.491 18.133,8.338 17.805,8.253 17.496,8.19 17.227,8.21 16.992,8.319 16.664,8.381 16.43,8.546 16.289,8.803 L 16.184,8.674 C 16.137,8.608 16.066,8.588 15.973,8.608 c 0,0.023 -0.039,0.055 -0.11,0.098 0.121,0.086 0.145,0.172 0.071,0.257 -0.09,0.11 -0.223,0.141 -0.387,0.098 0.023,0.172 0.164,0.235 0.426,0.195 0.187,-0.132 0.363,-0.132 0.527,0 0,-0.152 0.129,-0.304 0.387,-0.453 z"
         inkscape:connector-curvature="0" /><path
         id="path164"
         style="fill:#b6181f;fill-rule:evenodd"
         d="m 15.547,8.706 c 0.023,0.062 0.074,0.086 0.144,0.062 0.094,-0.043 0.153,-0.062 0.176,-0.062 0.071,-0.043 0.106,-0.075 0.106,-0.098 0.093,-0.02 0.164,0 0.211,0.066 l 0.105,0.129 C 16.43,8.546 16.664,8.381 16.992,8.319 16.973,8.233 16.898,8.135 16.781,8.026 V 7.932 L 16.57,7.835 h -0.386 c -0.024,0.062 -0.106,0.097 -0.246,0.097 -0.215,-0.023 -0.344,-0.023 -0.387,0 0.117,0.172 0.199,0.301 0.246,0.387 0.094,0.148 0.047,0.281 -0.141,0.387 z"
         inkscape:connector-curvature="0" /><path
         id="path166"
         style="fill:#fcf19f;fill-rule:evenodd"
         d="M 20.555,9.643 C 20.457,9.6 20.328,9.483 20.164,9.288 20.023,9.116 19.871,9.006 19.707,8.963 19.754,8.878 19.836,8.87 19.953,8.932 c 0.07,0.02 0.059,-0.019 -0.035,-0.129 0.141,-0.043 0.211,0.012 0.211,0.16 0.004,-0.023 0.027,-0.097 0.074,-0.222 0.024,-0.047 0.106,-0.09 0.246,-0.133 -0.14,-0.062 -0.293,-0.031 -0.461,0.098 -0.14,0.109 -0.258,0.109 -0.351,0 C 19.426,8.491 19.18,8.424 18.898,8.514 18.922,8.643 18.852,8.717 18.688,8.741 18.5,8.784 18.391,8.835 18.367,8.901 v 0.062 c 0.074,0.172 0.25,0.219 0.531,0.129 0.422,-0.086 0.668,-0.129 0.739,-0.129 0.074,0 0.117,0.043 0.144,0.129 0.047,0.11 0.094,0.164 0.141,0.164 -0.024,0.192 -0.141,0.344 -0.356,0.454 -0.089,0.043 -0.316,0.117 -0.668,0.222 -0.046,0.067 -0.128,0.121 -0.246,0.164 -0.164,0.063 -0.257,0.106 -0.285,0.129 -0.113,0.02 -0.234,0.074 -0.351,0.16 l -0.282,0.227 h 0.106 l 0.211,0.289 h 0.109 c 0.047,-0.129 0.176,-0.258 0.387,-0.387 0.258,-0.129 0.41,-0.226 0.457,-0.289 h 0.527 c 0.071,-0.023 0.129,-0.086 0.18,-0.195 -0.285,-0.067 -0.273,-0.16 0.035,-0.289 0.305,-0.153 0.469,-0.121 0.492,0.094 0.184,0 0.289,-0.063 0.317,-0.192 z"
         inkscape:connector-curvature="0" /><path
         id="path168"
         style="fill:#fdf8cf;fill-rule:evenodd"
         d="M 20.867,9.741 20.762,9.354 c -0.047,0 -0.106,0.043 -0.176,0.129 -0.07,0.082 -0.117,0.074 -0.141,-0.035 0.164,-0.043 0.176,-0.094 0.035,-0.16 -0.117,-0.086 -0.128,-0.129 -0.035,-0.129 0.047,0 0.106,0.031 0.176,0.097 0.07,0.02 0.117,-0.011 0.141,-0.097 0,-0.043 -0.071,-0.11 -0.211,-0.196 -0.094,-0.062 -0.059,-0.117 0.105,-0.16 L 21.188,8.221 V 8.124 c -0.118,-0.02 -0.211,0.011 -0.282,0.097 -0.097,0.129 -0.179,0.196 -0.25,0.196 -0.07,0.105 -0.14,0.171 -0.211,0.191 -0.14,0.043 -0.222,0.086 -0.246,0.129 -0.047,0.129 -0.07,0.203 -0.07,0.226 0,-0.148 -0.074,-0.203 -0.215,-0.16 0.098,0.106 0.109,0.149 0.035,0.129 -0.117,-0.066 -0.199,-0.054 -0.246,0.031 0.164,0.043 0.317,0.153 0.457,0.325 0.164,0.191 0.297,0.312 0.391,0.355 0.117,-0.109 0.199,-0.043 0.246,0.192 0.07,0.218 0.023,0.347 -0.141,0.386 l 0.211,0.098 c 0.094,-0.043 0.117,-0.098 0.071,-0.16 -0.047,-0.067 -0.036,-0.11 0.035,-0.129 0.047,0.129 0.152,0.191 0.316,0.191 0.047,-0.129 0.106,-0.269 0.176,-0.418 0.023,-0.109 0,-0.257 -0.07,-0.453 -0.141,-0.019 -0.247,0.024 -0.317,0.129 z m -0.101,-0.68 c 0.117,0.063 0.187,0.031 0.211,-0.098 -0.094,-0.085 -0.2,-0.14 -0.317,-0.16 -0.047,0.106 -0.015,0.192 0.106,0.258 z"
         inkscape:connector-curvature="0" /><path
         id="path170"
         style="fill:#77a32f;fill-rule:evenodd"
         d="m 20.977,8.963 h 0.211 c 0.117,-0.062 0.257,-0.085 0.421,-0.062 0,-0.219 -0.175,-0.348 -0.527,-0.391 0.07,-0.105 0.106,-0.203 0.106,-0.289 l -0.532,0.582 c 0.121,0.02 0.227,0.075 0.321,0.16 z"
         inkscape:connector-curvature="0" /><path
         id="path172"
         style="fill:#732f20;fill-rule:evenodd"
         d="m 21.609,8.901 h 0.422 c 0.047,-0.133 0.153,-0.293 0.317,-0.484 h 0.211 V 8.124 C 22.445,8.038 22.359,7.983 22.312,7.963 22.219,7.921 22.125,7.944 22.031,8.026 V 7.674 c 0,-0.132 -0.07,-0.175 -0.211,-0.132 l -0.636,0.582 v 0.097 c 0,0.086 -0.036,0.184 -0.106,0.293 0.356,0.039 0.531,0.168 0.531,0.387 z"
         inkscape:connector-curvature="0" /><path
         id="path174"
         style="fill:#77a32f;fill-rule:evenodd"
         d="M 15.656,8.706 C 15.844,8.596 15.891,8.467 15.797,8.319 15.746,8.233 15.668,8.1 15.547,7.932 c 0.047,-0.023 0.176,-0.023 0.387,0 0.144,0 0.226,-0.035 0.25,-0.097 -0.754,0 -1.211,0.062 -1.375,0.191 v 0.195 c 0.093,0.024 0.175,0.098 0.246,0.227 0.07,0.148 0.164,0.234 0.281,0.258 0.023,-0.063 0.059,-0.098 0.109,-0.098 0.071,0.023 0.106,0.055 0.106,0.098 z"
         inkscape:connector-curvature="0" /><path
         id="path176"
         style="fill:#fcf19f;fill-rule:evenodd"
         d="m 20.234,7.835 c 0.422,-0.11 0.672,-0.176 0.743,-0.196 0.117,0 0.257,-0.097 0.421,-0.289 L 21.188,7.253 21.082,7.124 C 21.031,7.057 20.965,7.038 20.867,7.057 c -0.07,0.067 -0.176,0.098 -0.316,0.098 0.117,0.109 0.105,0.215 -0.035,0.324 -0.188,0.172 -0.282,0.289 -0.282,0.356 z"
         inkscape:connector-curvature="0" /><path
         id="path178"
         style="fill:#f6de6f;fill-rule:evenodd"
         d="M 20.445,8.608 C 20.516,8.588 20.59,8.522 20.656,8.417 20.59,8.393 20.508,8.405 20.41,8.448 20.34,8.51 20.246,8.534 20.129,8.51 c 0.164,-0.234 0.449,-0.527 0.848,-0.871 -0.071,0.02 -0.321,0.086 -0.743,0.196 0.047,0.191 -0.058,0.289 -0.316,0.289 v 0.097 c 0.117,0.02 0.223,-0.011 0.316,-0.097 -0.023,0.086 -0.129,0.172 -0.316,0.257 -0.188,0.067 -0.281,0.172 -0.281,0.325 0.093,0.105 0.211,0.105 0.351,0 0.164,-0.129 0.317,-0.16 0.457,-0.098 z"
         inkscape:connector-curvature="0" /><path
         id="path180"
         style="fill:#f6da31;fill-rule:evenodd"
         d="M 19.355,8.221 C 19.098,8.241 18.941,8.21 18.895,8.124 h -0.633 c -0.024,0.152 0.058,0.238 0.246,0.257 0.234,0.024 0.367,0.067 0.387,0.129 0.285,-0.086 0.531,-0.019 0.742,0.196 0,-0.153 0.093,-0.258 0.281,-0.325 0.187,-0.085 0.297,-0.171 0.316,-0.257 -0.093,0.086 -0.199,0.117 -0.316,0.097 -0.047,-0.023 -0.234,-0.023 -0.563,0 z"
         inkscape:connector-curvature="0" /><path
         id="path182"
         style="fill:#f6da31;fill-rule:evenodd"
         d="m 20.656,8.413 c 0.074,0 0.156,-0.063 0.25,-0.192 C 20.977,8.135 21.07,8.1 21.188,8.124 L 21.82,7.542 c 0.192,-0.129 0.438,-0.356 0.742,-0.68 V 6.764 c -0.14,-0.019 -0.246,0.024 -0.316,0.129 -0.023,0.133 -0.058,0.219 -0.105,0.262 -0.094,-0.024 -0.082,-0.141 0.035,-0.356 0.117,-0.195 0.14,-0.304 0.07,-0.324 -0.07,0.02 -0.141,0.086 -0.211,0.196 0.07,0.062 0.047,0.16 -0.07,0.289 -0.117,0.128 -0.238,0.226 -0.352,0.293 h -0.109 c 0,0.062 -0.035,0.093 -0.106,0.093 -0.164,0.196 -0.304,0.293 -0.421,0.293 -0.399,0.344 -0.684,0.633 -0.848,0.871 0.117,0.02 0.215,0 0.285,-0.062 0.09,-0.043 0.176,-0.055 0.242,-0.035 z"
         inkscape:connector-curvature="0" /><path
         id="path184"
         style="fill:#f6de6f;fill-rule:evenodd"
         d="m 22.242,6.475 c 0.074,0.024 0.047,0.129 -0.07,0.324 -0.117,0.215 -0.129,0.332 -0.035,0.356 0.047,-0.043 0.082,-0.129 0.105,-0.258 0.074,-0.109 0.18,-0.152 0.317,-0.129 0.05,-0.129 0.015,-0.226 -0.106,-0.293 -0.137,-0.086 -0.211,-0.086 -0.211,0 z"
         inkscape:connector-curvature="0" /><path
         id="path186"
         style="fill:#732f20;fill-rule:evenodd"
         d="M 21.609,7.253 C 21.727,7.186 21.844,7.088 21.961,6.96 22.078,6.831 22.102,6.733 22.031,6.671 22.008,6.475 21.867,6.303 21.609,6.155 21.305,5.983 21.129,5.842 21.082,5.733 20.965,5.69 20.848,5.702 20.73,5.764 c -0.14,0.047 -0.273,0.067 -0.39,0.067 0.379,0.215 0.648,0.386 0.812,0.515 0.282,0.196 0.469,0.434 0.563,0.711 -0.07,0.067 -0.106,0.129 -0.106,0.196 z"
         inkscape:connector-curvature="0" /><path
         id="path188"
         style="fill:#fdf8cf;fill-rule:evenodd"
         d="M 16.992,8.319 C 17.227,8.21 17.5,8.186 17.805,8.253 c 0.328,0.085 0.41,0.238 0.246,0.453 0.094,0 0.199,0.062 0.316,0.191 C 18.391,8.835 18.496,8.78 18.684,8.737 18.848,8.717 18.918,8.639 18.895,8.51 18.875,8.448 18.742,8.405 18.508,8.381 18.32,8.362 18.238,8.276 18.262,8.124 H 19.32 C 19.203,7.952 18.848,7.823 18.262,7.737 18.051,7.756 17.828,7.835 17.594,7.963 17.332,8.112 17.133,8.198 16.992,8.221 16.945,8.092 16.875,8.026 16.781,8.026 c 0.117,0.109 0.188,0.207 0.211,0.293 z"
         inkscape:connector-curvature="0" /><path
         id="path190"
         style="fill:#b6181f;fill-rule:evenodd"
         d="M 19.918,8.221 V 8.124 C 19.848,8.014 19.648,7.928 19.32,7.866 18.969,7.823 18.754,7.749 18.684,7.639 c 0.187,0 0.636,0.063 1.339,0.196 0.071,-0.067 0.118,-0.176 0.141,-0.325 0.07,-0.129 0.199,-0.183 0.391,-0.16 -0.145,-0.109 -0.344,-0.109 -0.602,0 -0.305,0.106 -0.551,0.141 -0.738,0.098 0.047,-0.047 0.152,-0.11 0.316,-0.195 0.141,-0.067 0.235,-0.129 0.281,-0.196 0.024,-0.234 -0.105,-0.332 -0.386,-0.289 0,0.063 0.047,0.11 0.14,0.129 0.118,0.02 0.164,0.074 0.141,0.16 -0.281,0.129 -0.504,0.207 -0.668,0.227 -0.285,0.086 -0.473,0.012 -0.566,-0.227 -0.211,0 -0.317,-0.031 -0.317,-0.097 -0.094,-0.063 -0.234,-0.094 -0.422,-0.094 0,-0.133 0.036,-0.219 0.106,-0.258 0.07,-0.023 0.14,0 0.211,0.063 v -0.29 c -0.211,0.063 -0.387,0.235 -0.528,0.516 -0.187,0.344 -0.328,0.559 -0.421,0.645 0.07,0.086 0.21,0.054 0.421,-0.094 0.235,-0.172 0.411,-0.172 0.528,0 0.14,0.019 0.215,0.117 0.215,0.289 0.586,0.086 0.937,0.215 1.054,0.387 h -0.422 c 0.047,0.086 0.2,0.121 0.457,0.097 0.329,-0.023 0.516,-0.023 0.563,0 z"
         inkscape:connector-curvature="0" /><path
         id="path192"
         style="fill:#f6de6f;fill-rule:evenodd"
         d="m 19.109,5.249 c -0.093,0.129 -0.203,0.191 -0.32,0.191 -0.07,0.066 -0.184,0.129 -0.351,0.195 -0.188,0.086 -0.317,0.153 -0.387,0.196 -0.024,0.086 -0.082,0.136 -0.176,0.16 -0.141,0.043 -0.223,0.074 -0.246,0.097 0.07,0.063 0.094,0.118 0.07,0.161 -0.023,0.043 -0.047,0.019 -0.07,-0.067 l -0.035,0.262 c -0.024,0.125 -0.117,0.203 -0.285,0.223 0,0.109 -0.047,0.207 -0.141,0.293 -0.094,0.128 -0.152,0.226 -0.176,0.289 V 7.737 C 16.852,7.628 16.781,7.467 16.781,7.253 16.688,7.424 16.594,7.499 16.5,7.479 16.336,7.37 16.191,7.296 16.078,7.253 c 0.07,0.062 0.106,0.128 0.106,0.195 v 0.094 c 0.07,0.086 0.164,0.117 0.281,0.097 0.07,-0.019 0.176,-0.054 0.316,-0.097 v 0.293 c 0.188,0 0.399,-0.067 0.633,-0.196 0.211,-0.148 0.426,-0.215 0.637,-0.191 -0.117,-0.176 -0.293,-0.176 -0.531,0 -0.211,0.148 -0.352,0.18 -0.422,0.094 0.093,-0.086 0.234,-0.301 0.422,-0.645 0.14,-0.281 0.32,-0.453 0.531,-0.519 0,-0.172 0.14,-0.301 0.422,-0.387 C 18.496,5.971 18.602,5.94 18.789,5.893 18.906,5.874 18.977,5.819 19,5.733 l 0.633,-0.484 c -0.071,0.3 0.027,0.336 0.285,0.097 C 19.941,5.217 19.895,5.096 19.777,4.991 19.66,4.862 19.543,4.85 19.426,4.96 19.355,5.085 19.25,5.182 19.109,5.249 Z"
         inkscape:connector-curvature="0" /><path
         id="path194"
         style="fill:#b6181f;fill-rule:evenodd"
         d="m 19.918,8.124 c 0.258,0 0.363,-0.098 0.316,-0.289 0,-0.067 0.094,-0.184 0.282,-0.356 0.14,-0.109 0.152,-0.219 0.039,-0.324 0.136,0 0.246,-0.031 0.316,-0.098 C 20.59,6.866 20.27,6.713 19.918,6.608 19.496,6.479 19.121,6.467 18.793,6.573 c -0.027,0.066 -0.129,0.098 -0.316,0.098 0,0.062 0.105,0.097 0.316,0.097 -0.141,0.129 -0.352,0.192 -0.637,0.192 0,0.066 0.106,0.097 0.317,0.097 0.168,0.024 0.328,-0.019 0.496,-0.129 0.187,-0.105 0.34,-0.16 0.457,-0.16 0.281,-0.043 0.41,0.055 0.386,0.289 -0.046,0.067 -0.14,0.129 -0.281,0.196 -0.164,0.085 -0.273,0.148 -0.316,0.195 0.187,0.043 0.433,0.008 0.738,-0.098 0.258,-0.109 0.457,-0.109 0.602,0 -0.192,-0.023 -0.321,0.031 -0.391,0.16 -0.023,0.149 -0.07,0.258 -0.141,0.325 -0.703,-0.133 -1.148,-0.196 -1.339,-0.196 0.07,0.11 0.285,0.184 0.636,0.227 0.328,0.062 0.528,0.148 0.598,0.258 z"
         inkscape:connector-curvature="0" /><path
         id="path196"
         style="fill:#77a32f;fill-rule:evenodd"
         d="m 22.562,6.862 c -0.308,0.324 -0.55,0.551 -0.742,0.68 0.141,-0.043 0.211,0 0.211,0.129 v 0.355 c 0.094,-0.086 0.188,-0.105 0.285,-0.063 0.047,0.02 0.129,0.075 0.246,0.161 C 22.891,8.061 23.008,7.897 22.914,7.639 22.867,7.487 22.75,7.229 22.562,6.862 Z"
         inkscape:connector-curvature="0" /><path
         id="path198"
         style="fill:#fcf19f;fill-rule:evenodd"
         d="M 9.488,7.835 C 9.512,7.94 9.594,7.975 9.734,7.928 9.875,7.909 9.969,7.878 10.016,7.835 9.781,7.53 9.465,7.401 9.062,7.448 9.16,7.553 9.289,7.608 9.453,7.608 9.641,7.628 9.793,7.671 9.91,7.737 9.887,7.78 9.828,7.811 9.734,7.835 Z"
         inkscape:connector-curvature="0" /><path
         id="path200"
         style="fill:#77a32f;fill-rule:evenodd"
         d="m 14.598,7.737 c 0.164,0 0.34,-0.055 0.527,-0.16 0.187,-0.11 0.363,-0.153 0.531,-0.129 C 15.559,7.272 15.418,7.143 15.23,7.057 15.301,7.124 15.336,7.186 15.336,7.253 15.055,7.186 14.844,7.057 14.703,6.866 h -0.211 c 0.024,0.043 0.024,0.226 0,0.547 -0.023,0.238 0.012,0.379 0.106,0.422 z"
         inkscape:connector-curvature="0" /><path
         id="path202"
         style="fill:#fdf8cf;fill-rule:evenodd"
         d="m 17.383,6.475 c -0.121,0.129 -0.215,0.196 -0.285,0.196 -0.024,-0.086 0,-0.172 0.07,-0.258 0.047,-0.067 0.059,-0.141 0.035,-0.227 -0.258,0.11 -0.492,0.141 -0.703,0.098 h -0.742 c -0.164,0.019 0,0.117 0.496,0.289 0.398,0.148 0.574,0.086 0.527,-0.195 l 0.317,0.39 C 16.957,6.94 16.887,7.1 16.887,7.253 h 0.105 C 17.016,7.186 17.074,7.088 17.168,6.96 17.262,6.874 17.309,6.776 17.309,6.671 L 17.52,6.475 c -0.02,-0.086 -0.067,-0.086 -0.137,0 z"
         inkscape:connector-curvature="0" /><path
         id="path204"
         style="fill:#fcf19f;fill-rule:evenodd"
         d="m 15.02,6.284 c 0.398,0.277 0.75,0.601 1.058,0.969 0.117,0.043 0.258,0.117 0.422,0.226 0.094,0.02 0.188,-0.055 0.281,-0.226 0,0.214 0.071,0.375 0.211,0.484 V 7.253 h -0.105 c 0,-0.153 0.07,-0.313 0.211,-0.485 L 16.781,6.378 C 16.828,6.659 16.652,6.725 16.254,6.573 15.762,6.401 15.598,6.303 15.762,6.284 L 15.551,6.186 C 15.195,6.143 15.02,5.96 15.02,5.635 c -0.094,0 -0.153,0.078 -0.176,0.227 -0.024,0.129 -0.071,0.203 -0.141,0.226 0.024,0.043 0.082,0.075 0.176,0.098 0.094,0 0.141,0.031 0.141,0.098 z"
         inkscape:connector-curvature="0" /><path
         id="path206"
         style="fill:#c4c2c1;fill-rule:evenodd"
         d="m 15.23,7.057 c -0.07,0 -0.152,-0.054 -0.246,-0.16 C 14.914,6.788 14.82,6.745 14.703,6.768 v 0.094 c 0.141,0.195 0.352,0.324 0.633,0.391 0,-0.067 -0.035,-0.129 -0.106,-0.196 z"
         inkscape:connector-curvature="0" /><path
         id="path208"
         style="fill:#732f20;fill-rule:evenodd"
         d="m 21.188,7.253 0.21,0.093 c 0.071,0 0.106,-0.031 0.106,-0.093 -0.164,-0.692 -0.762,-1.11 -1.797,-1.262 0.516,0.215 0.848,0.398 0.984,0.551 0.168,0.238 0.332,0.472 0.497,0.711 z"
         inkscape:connector-curvature="0" /><path
         id="path210"
         style="fill:#77a32f;fill-rule:evenodd"
         d="m 19.215,6.088 c -0.051,-0.085 -0.223,-0.085 -0.531,0 -0.211,0.063 -0.282,0.063 -0.211,0 V 5.991 c -0.282,0.086 -0.422,0.215 -0.422,0.387 v 0.386 c 0.094,0 0.211,-0.031 0.351,-0.093 0.118,-0.086 0.246,-0.122 0.387,-0.098 0.328,-0.11 0.707,-0.098 1.129,0.031 0.352,0.109 0.668,0.258 0.949,0.453 0.094,-0.023 0.164,0 0.215,0.063 l 0.106,0.133 C 21.02,7.014 20.855,6.776 20.691,6.538 20.551,6.389 20.223,6.206 19.707,5.991 c -0.211,0 -0.375,0.031 -0.492,0.097 z"
         inkscape:connector-curvature="0" /><path
         id="path212"
         style="fill:#f6da31;fill-rule:evenodd"
         d="m 19.707,5.991 c 0.047,-0.086 0.117,-0.203 0.211,-0.356 h 0.211 c 0.285,0.024 0.387,-0.074 0.316,-0.289 H 19.918 C 19.66,5.581 19.566,5.549 19.637,5.249 L 19,5.733 c 0.051,0 0.117,-0.02 0.215,-0.066 0.07,-0.043 0.14,-0.051 0.211,-0.032 0.023,0.086 -0.012,0.161 -0.106,0.227 -0.093,0.043 -0.129,0.117 -0.105,0.226 0.117,-0.066 0.281,-0.097 0.492,-0.097 z"
         inkscape:connector-curvature="0" /><path
         id="path214"
         style="fill:#fcf19f;fill-rule:evenodd"
         d="M 17.629,5.733 C 17.605,5.624 17.441,5.659 17.133,5.831 16.805,6.003 16.594,6.151 16.5,6.284 c 0.211,0.043 0.445,0.008 0.707,-0.098 0.02,0.086 0.012,0.16 -0.039,0.227 -0.07,0.082 -0.09,0.172 -0.07,0.258 0.07,0 0.164,-0.067 0.285,-0.196 0.07,-0.086 0.117,-0.086 0.14,0 L 17.312,6.671 C 17.477,6.647 17.57,6.573 17.594,6.444 l 0.035,-0.258 c 0.023,0.086 0.047,0.106 0.07,0.063 0.024,-0.043 0,-0.098 -0.07,-0.161 C 17.582,6.003 17.535,5.936 17.488,5.893 17.465,5.85 17.512,5.796 17.629,5.733 Z"
         inkscape:connector-curvature="0" /><path
         id="path216"
         style="fill:#c4c2c1;fill-rule:evenodd"
         d="M 18.789,6.573 C 18.648,6.553 18.52,6.585 18.402,6.671 18.262,6.733 18.145,6.768 18.051,6.768 V 6.671 C 17.98,6.604 17.91,6.585 17.84,6.604 c -0.07,0.043 -0.106,0.129 -0.106,0.258 0.188,0 0.328,0.035 0.422,0.098 0.282,0 0.492,-0.063 0.633,-0.192 -0.211,0 -0.316,-0.035 -0.316,-0.097 0.187,0 0.293,-0.032 0.316,-0.098 z"
         inkscape:connector-curvature="0" /><path
         id="path218"
         style="fill:#fdf8cf;fill-rule:evenodd"
         d="M 14.598,7.835 C 14.504,7.792 14.469,7.651 14.492,7.413 c 0.024,-0.321 0.024,-0.504 0,-0.551 h 0.211 V 6.768 C 14.68,6.616 14.715,6.456 14.809,6.284 H 15.02 C 15.02,6.217 14.973,6.186 14.879,6.186 14.785,6.163 14.727,6.131 14.703,6.088 14.773,6.069 14.82,5.991 14.844,5.862 14.867,5.713 14.926,5.635 15.02,5.635 15.184,5.335 15.324,5.174 15.445,5.151 V 5.057 c -0.05,-0.195 -0.086,-0.293 -0.109,-0.293 -0.398,0.258 -0.68,0.668 -0.844,1.227 -0.187,0.324 -0.246,0.777 -0.176,1.359 0.071,0.582 0.235,0.871 0.493,0.871 V 8.03 C 14.762,7.897 14.691,7.835 14.598,7.835 Z"
         inkscape:connector-curvature="0" /><path
         id="path220"
         style="fill:#f6de6f;fill-rule:evenodd"
         d="m 15.02,5.635 c 0,0.325 0.175,0.508 0.527,0.551 C 15.383,6.12 15.266,6.014 15.195,5.862 15.102,5.69 15.148,5.549 15.336,5.444 L 15.445,5.151 C 15.324,5.174 15.184,5.335 15.02,5.635 Z"
         inkscape:connector-curvature="0" /><path
         id="path222"
         style="fill:#732f20;fill-rule:evenodd"
         d="M 18.367,4.862 C 18.086,5.163 17.91,5.421 17.84,5.635 17.816,5.721 17.887,5.788 18.051,5.831 18.121,5.788 18.25,5.721 18.438,5.635 18.605,5.569 18.723,5.506 18.789,5.444 18.555,5.335 18.414,5.143 18.367,4.862 Z"
         inkscape:connector-curvature="0" /><path
         id="path224"
         style="fill:#77a32f;fill-rule:evenodd"
         d="m 15.336,5.444 c 0.07,0 0.141,0.051 0.211,0.16 0.098,0.109 0.199,0.149 0.316,0.129 0,-0.066 -0.07,-0.098 -0.211,-0.098 0.047,-0.105 0.2,-0.16 0.457,-0.16 0.215,0.02 0.403,0.074 0.567,0.16 0.14,-0.043 0.211,-0.011 0.211,0.098 0.304,-0.152 0.48,-0.281 0.527,-0.387 -0.094,0 -0.199,-0.031 -0.316,-0.097 C 17.004,5.163 16.898,5.131 16.781,5.151 17.016,4.741 17.367,4.612 17.84,4.764 17.77,4.831 17.734,4.893 17.734,4.956 17.922,4.917 17.992,4.784 17.945,4.569 17.711,4.549 17.156,4.452 16.289,4.28 v 0.098 h 0.106 l -0.247,0.418 c -0.14,0.152 -0.304,0.238 -0.492,0.257 V 4.956 l -0.215,0.097 v 0.098 z"
         inkscape:connector-curvature="0" /><path
         id="path226"
         style="fill:#732f20;fill-rule:evenodd"
         d="m 17.418,5.346 c 0.094,0.02 0.152,-0.031 0.176,-0.164 0.023,-0.148 0.07,-0.226 0.14,-0.226 0,-0.063 0.036,-0.125 0.106,-0.192 -0.469,-0.152 -0.82,-0.019 -1.059,0.387 0.117,-0.02 0.223,0.012 0.317,0.098 0.117,0.062 0.222,0.097 0.32,0.097 z"
         inkscape:connector-curvature="0" /><path
         id="path228"
         style="fill:#732f20;fill-rule:evenodd"
         d="M 19.215,5.667 C 19.121,5.713 19.051,5.733 19,5.733 18.98,5.819 18.906,5.874 18.789,5.893 18.602,5.936 18.496,5.971 18.473,5.991 v 0.097 c -0.071,0.063 0,0.063 0.211,0 0.308,-0.085 0.484,-0.085 0.531,0 C 19.191,5.979 19.227,5.905 19.32,5.862 19.414,5.796 19.449,5.721 19.426,5.635 19.355,5.612 19.285,5.624 19.215,5.667 Z"
         inkscape:connector-curvature="0" /><path
         id="path230"
         style="fill:#fcf19f;fill-rule:evenodd"
         d="m 15.867,5.733 c 0.071,0.063 0.246,0.098 0.528,0.098 0.257,0 0.421,-0.035 0.492,-0.098 0,-0.109 -0.071,-0.141 -0.211,-0.098 -0.024,0.067 -0.141,0.098 -0.352,0.098 -0.258,-0.02 -0.41,-0.02 -0.457,0 z"
         inkscape:connector-curvature="0" /><path
         id="path232"
         style="fill:#fdf8cf;fill-rule:evenodd"
         d="m 15.441,4.667 c 0.141,-0.043 0.59,-0.27 1.34,-0.68 -0.328,0 -0.703,0.129 -1.125,0.391 -0.121,0.105 -0.191,0.203 -0.215,0.289 z"
         inkscape:connector-curvature="0" /><path
         id="path234"
         style="fill:#fdf8cf;fill-rule:evenodd"
         d="M 17.203,9.741 C 17.32,9.846 17.531,9.889 17.84,9.87 18.168,9.846 18.309,9.741 18.262,9.546 H 17.84 v 0.097 c -0.211,0.106 -0.422,0.141 -0.637,0.098 z"
         inkscape:connector-curvature="0" /><path
         id="path236"
         style="fill:#732f20;fill-rule:evenodd"
         d="m 15.547,9.061 c 0.164,0.043 0.297,0.012 0.387,-0.098 0.074,-0.085 0.05,-0.171 -0.071,-0.257 -0.019,0 -0.082,0.019 -0.175,0.062 -0.071,0.024 -0.118,0 -0.141,-0.062 0,-0.043 -0.035,-0.075 -0.106,-0.098 -0.046,0 -0.082,0.035 -0.105,0.098 v 0.097 c 0.141,0.02 0.211,0.106 0.211,0.258 z"
         inkscape:connector-curvature="0" /><path
         id="path238"
         style="fill:#b6181f;fill-rule:evenodd"
         d="m 19.637,8.963 c -0.071,0 -0.317,0.043 -0.742,0.129 C 18.613,9.178 18.438,9.135 18.367,8.963 18.133,8.835 17.945,8.737 17.805,8.674 17.57,8.546 17.332,8.491 17.098,8.51 c 0,0.047 -0.071,0.11 -0.211,0.196 v 0.097 c -0.141,0.192 -0.246,0.344 -0.317,0.453 0.235,0.04 0.375,0.106 0.422,0.192 0.258,0.066 0.516,0.055 0.778,-0.031 0.328,-0.11 0.562,-0.161 0.703,-0.161 0.257,0.04 0.613,-0.023 1.058,-0.195 0.047,0.063 0.059,0.141 0.035,0.227 C 19.52,9.393 19.543,9.479 19.637,9.546 19.449,9.479 19.234,9.514 19,9.643 c 0,0.043 -0.047,0.106 -0.141,0.192 -0.093,0.043 -0.082,0.078 0.036,0.097 0.351,-0.105 0.578,-0.183 0.671,-0.226 0.211,-0.106 0.329,-0.258 0.352,-0.45 -0.047,0 -0.094,-0.054 -0.141,-0.164 -0.023,-0.086 -0.07,-0.129 -0.14,-0.129 z"
         inkscape:connector-curvature="0" /><path
         id="path240"
         style="fill:#fcf19f;fill-rule:evenodd"
         d="m 15.758,7.542 c -0.137,0.023 -0.211,0.086 -0.211,0.195 0.074,0.019 0.262,0.019 0.566,0 0.258,-0.024 0.41,0.012 0.457,0.098 l 0.211,0.093 V 7.542 C 16.641,7.585 16.535,7.62 16.465,7.639 16.348,7.659 16.254,7.628 16.184,7.542 Z"
         inkscape:connector-curvature="0" /><path
         id="path242"
         style="fill:#b6181f;fill-rule:evenodd"
         d="m 20.34,5.831 c 0,-0.086 -0.07,-0.153 -0.211,-0.196 h -0.211 c -0.094,0.153 -0.164,0.27 -0.211,0.356 1.031,0.152 1.633,0.57 1.797,1.262 h 0.105 c 0,-0.067 0.036,-0.129 0.106,-0.196 C 21.621,6.776 21.434,6.542 21.152,6.346 20.988,6.217 20.719,6.046 20.34,5.831 Z"
         inkscape:connector-curvature="0" /><path
         id="path244"
         style="fill:#77a32f;fill-rule:evenodd"
         d="M 18.051,5.831 C 17.887,5.788 17.816,5.721 17.84,5.635 c -0.07,0.067 -0.145,0.098 -0.215,0.098 -0.113,0.063 -0.164,0.117 -0.141,0.16 0.047,0.043 0.094,0.11 0.141,0.195 0.023,-0.023 0.109,-0.054 0.25,-0.097 0.094,-0.02 0.152,-0.074 0.176,-0.16 z"
         inkscape:connector-curvature="0" /><path
         id="path246"
         style="fill:#fdf8cf;fill-rule:evenodd"
         d="m 16.676,5.635 c -0.164,-0.086 -0.352,-0.14 -0.563,-0.16 -0.258,0 -0.414,0.055 -0.457,0.16 0.141,0 0.211,0.032 0.211,0.098 0.047,-0.02 0.199,-0.02 0.457,0 0.211,0 0.328,-0.031 0.352,-0.098 z"
         inkscape:connector-curvature="0" /><path
         id="path248"
         style="fill:#b6181f;fill-rule:evenodd"
         d="m 18.789,5.444 c 0.117,0 0.227,-0.066 0.32,-0.195 -0.05,-0.153 -0.226,-0.25 -0.531,-0.293 -0.094,0 -0.129,-0.032 -0.105,-0.094 h -0.106 c 0.047,0.281 0.188,0.473 0.422,0.582 z"
         inkscape:connector-curvature="0" /><path
         id="path250"
         style="fill:#f6da31;fill-rule:evenodd"
         d="m 15.195,5.862 c 0.071,0.152 0.188,0.258 0.352,0.324 l 0.211,0.098 H 16.5 c 0.094,-0.133 0.305,-0.281 0.633,-0.453 0.308,-0.172 0.472,-0.207 0.496,-0.098 0.07,0 0.141,-0.031 0.211,-0.098 0.07,-0.214 0.246,-0.472 0.527,-0.773 h 0.106 c 0,-0.066 0.023,-0.141 0.07,-0.227 0.047,-0.086 0.062,-0.175 0.035,-0.257 -0.164,-0.067 -0.281,-0.067 -0.351,0 -0.094,0.082 -0.188,0.148 -0.282,0.191 0.047,0.215 -0.023,0.348 -0.211,0.387 -0.07,0 -0.117,0.078 -0.14,0.226 -0.024,0.129 -0.082,0.184 -0.176,0.164 -0.051,0.106 -0.227,0.235 -0.531,0.387 -0.071,0.063 -0.235,0.098 -0.492,0.098 -0.282,0 -0.457,-0.035 -0.528,-0.098 C 15.75,5.753 15.645,5.71 15.551,5.604 15.48,5.495 15.406,5.44 15.336,5.44 15.148,5.549 15.102,5.69 15.195,5.862 Z"
         inkscape:connector-curvature="0" /><path
         id="path252"
         style="fill:#b8952e;fill-rule:evenodd"
         d="m 22.809,8.413 c -0.02,0.07 -0.036,0.144 -0.055,0.226 0.062,0.043 0.125,0.067 0.195,0.067 0,-0.129 -0.047,-0.227 -0.14,-0.293 z m -0.055,0.23 C 22.738,8.624 22.723,8.6 22.703,8.577 22.633,8.491 22.586,8.436 22.562,8.417 h -0.21 c -0.168,0.191 -0.274,0.351 -0.321,0.484 0.051,0 0.145,-0.035 0.285,-0.098 0.118,-0.043 0.235,-0.043 0.352,0 0.047,0.172 -0.035,0.282 -0.246,0.321 -0.262,0.066 -0.391,0.14 -0.391,0.226 v 0.391 c 0.356,-0.09 0.578,-0.348 0.672,-0.778 0.02,-0.117 0.039,-0.226 0.051,-0.32 z M 22.949,8.026 C 22.996,7.983 23.102,7.885 23.266,7.737 23.43,7.608 23.512,7.499 23.512,7.413 23.512,7.327 23.371,7.081 23.09,6.671 22.809,6.284 22.609,6.046 22.492,5.96 21.082,4.948 19.742,4.256 18.473,3.889 18.355,3.913 18.238,3.901 18.121,3.858 18.004,3.815 17.91,3.796 17.84,3.796 17.723,3.815 17.605,3.803 17.488,3.76 17.371,3.717 17.277,3.698 17.207,3.698 17.062,3.674 16.898,3.686 16.711,3.729 16.523,3.796 16.348,3.815 16.184,3.796 h -0.211 c -0.379,0.148 -0.93,0.32 -1.657,0.515 -0.871,0.215 -1.433,0.367 -1.691,0.453 0,0.086 -0.059,0.141 -0.176,0.16 -0.144,0.043 -0.191,0.118 -0.144,0.227 0.332,0 0.859,-0.117 1.586,-0.355 0.636,-0.196 1.117,-0.27 1.445,-0.227 -0.094,-0.063 -0.141,-0.172 -0.141,-0.32 -0.023,-0.153 0.024,-0.176 0.141,-0.067 -0.07,0.02 -0.094,0.055 -0.07,0.098 0.046,0.043 0.105,0.074 0.175,0.098 l 0.036,-0.129 c 0,-0.047 0.023,-0.067 0.07,-0.067 l 0.109,0.196 c 0.422,-0.262 0.797,-0.391 1.125,-0.391 -0.75,0.41 -1.199,0.637 -1.34,0.68 -0.093,0 -0.129,0.031 -0.105,0.097 0.023,0 0.059,0.098 0.105,0.289 l 0.215,-0.097 c 0.141,-0.235 0.352,-0.43 0.633,-0.578 V 4.28 c 0.867,0.172 1.422,0.269 1.656,0.289 0.094,-0.043 0.188,-0.109 0.282,-0.191 0.07,-0.067 0.187,-0.067 0.351,0 0.07,0.082 0.188,0.171 0.352,0.257 l 0.39,0.227 c -0.027,0.062 0.012,0.094 0.106,0.094 0.117,-0.106 0.234,-0.094 0.351,0.035 0.118,0.105 0.164,0.226 0.141,0.355 h 0.527 c 0.071,0.215 -0.035,0.313 -0.316,0.289 0.141,0.043 0.211,0.11 0.211,0.196 0.117,0 0.25,-0.024 0.387,-0.067 0.117,-0.066 0.238,-0.074 0.355,-0.031 0.047,0.105 0.223,0.246 0.527,0.418 0.258,0.152 0.399,0.324 0.422,0.516 0.071,-0.106 0.141,-0.172 0.211,-0.192 0,-0.086 0.07,-0.086 0.211,0 0.117,0.063 0.152,0.16 0.106,0.289 v 0.098 c 0.191,0.367 0.308,0.625 0.355,0.777 0.094,0.258 -0.023,0.418 -0.355,0.485 v 0.093 c 0.121,0.067 0.203,0.129 0.25,0.196 0.05,-0.207 0.097,-0.336 0.14,-0.387 z"
         inkscape:connector-curvature="0" /><path
         id="path254"
         style="fill:#b8952e;fill-rule:evenodd"
         d="m 23.582,7.479 c 0.023,-0.219 0.012,-0.324 -0.035,-0.324 -0.07,0 -0.258,0.141 -0.563,0.422 -0.046,0.32 -0.117,0.558 -0.211,0.711 -0.308,0.258 -0.496,0.504 -0.566,0.742 -0.047,0.129 -0.129,0.234 -0.246,0.324 -0.211,0.172 -0.352,0.289 -0.422,0.356 -0.375,0.535 -0.684,0.847 -0.918,0.933 -0.141,0.043 -0.281,0.067 -0.422,0.067 h -0.176 l 0.211,0.484 0.633,-0.258 c 0.473,-0.238 0.895,-0.527 1.27,-0.875 0.847,-0.773 1.293,-1.418 1.34,-1.937 0,-0.024 0.035,-0.239 0.105,-0.645 z"
         inkscape:connector-curvature="0" /><path
         id="path256"
         style="fill:#ffeba6;fill-rule:evenodd"
         d="m 12.094,13.389 c -1.785,0.086 -2.852,0.129 -3.207,0.129 -1.196,0.024 -2.114,-0.051 -2.746,-0.222 0.515,0.472 1.492,0.707 2.921,0.707 1.364,0 2.376,-0.204 3.032,-0.614 z"
         inkscape:connector-curvature="0" /><path
         id="path258"
         style="fill:#f5cd53;fill-rule:evenodd"
         d="m 10.227,8.124 c 0.285,0.062 0.433,0 0.461,-0.196 0,-0.191 -0.133,-0.312 -0.391,-0.351 C 10.039,7.53 9.875,7.585 9.805,7.737 9.758,7.909 9.898,8.038 10.227,8.124 Z"
         inkscape:connector-curvature="0" /><path
         id="path260"
         style="fill:#f5cd53;fill-rule:evenodd"
         d="m 4.203,10.288 c 0.188,0.086 0.469,0 0.844,-0.258 C 5.422,9.792 5.457,9.62 5.152,9.514 4.824,9.385 4.531,9.448 4.273,9.706 4.016,9.944 3.988,10.139 4.203,10.288 Z"
         inkscape:connector-curvature="0" /><path
         id="path262"
         style="fill:#f5cd53;fill-rule:evenodd"
         d="m 6.703,10.323 c 0.211,0.148 0.41,0.16 0.598,0.031 C 7.488,10.202 7.465,10.053 7.23,9.901 7.02,9.729 6.832,9.717 6.668,9.87 6.504,10.042 6.516,10.19 6.703,10.323 Z"
         inkscape:connector-curvature="0" /><path
         id="path264"
         style="fill:#fadf88;fill-rule:evenodd"
         d="m 15.582,12.585 c -1.668,0.343 -2.676,0.535 -3.027,0.578 l -2.328,0.164 C 9.875,13.346 9.617,13.335 9.453,13.292 9.359,13.249 9.102,13.112 8.676,12.874 8.418,12.702 8.16,12.667 7.902,12.776 7.5,12.905 7.172,12.971 6.914,12.971 6.516,12.948 5.926,12.788 5.152,12.487 l -1.023,-0.453 0.742,0.777 c 0.141,0.149 0.82,0.449 2.043,0.902 l 1.445,0.098 c 1.008,0.067 1.645,0.086 1.903,0.067 z"
         inkscape:connector-curvature="0" /><path
         id="path266"
         style="fill:#e0b538;fill-rule:evenodd"
         d="M 3.426,8.546 5.363,7.866 C 6.75,7.37 7.727,7.057 8.289,6.928 9.395,6.647 9.992,6.51 10.086,6.51 c 0.637,-0.089 1.328,0.02 2.078,0.321 0.684,0.281 1.258,0.679 1.727,1.195 0.472,0.582 0.859,1.023 1.164,1.324 0.515,0.496 0.847,0.809 0.988,0.938 0.211,0.195 0.445,0.312 0.703,0.355 0.399,0.043 0.731,0.031 0.988,-0.031 -0.8,-0.172 -1.41,-0.43 -1.836,-0.777 C 15.785,9.749 15.184,9.124 14.105,7.96 13.867,7.725 13.645,7.467 13.434,7.186 13.223,6.971 12.918,6.764 12.516,6.569 11.508,6.096 10.473,5.999 9.414,6.28 9.062,6.366 8.488,6.569 7.688,6.893 7.078,7.131 6.656,7.253 6.422,7.253 6.16,7.253 5.586,7.467 4.695,7.897 Z"
         inkscape:connector-curvature="0" /><path
         id="path268"
         style="fill:#77a32f;fill-rule:evenodd"
         d="M 2.234,7.835 C 2.668,7.987 3.043,8.061 3.363,8.061 L 5.926,6.956 C 7.699,6.202 8.781,5.78 9.168,5.69 9.785,5.561 11.195,5.042 13.406,4.135 12.656,4.069 12.039,4.038 11.562,4.038 11.242,4.038 10.969,3.94 10.742,3.745 10.582,3.635 10.332,3.421 9.988,3.096 9.738,2.878 9.398,2.901 8.965,3.163 8.531,3.487 8.223,3.702 8.043,3.811 7.816,3.96 7.609,3.96 7.43,3.811 7.383,3.788 7.164,3.585 6.777,3.194 6.438,2.846 6.027,3.018 5.551,3.713 4.934,3.713 4.387,3.678 3.91,3.616 3.613,3.569 3.555,3.604 3.738,3.713 4.125,3.971 4.355,4.147 4.422,4.229 4.605,4.405 4.707,4.577 4.73,4.749 v 0.23 C 4.434,4.827 4.113,4.717 3.773,4.651 3.09,4.522 2.645,4.631 2.441,4.979 2.234,5.323 2.293,5.628 2.609,5.885 L 3.156,6.21 C 2.543,6.428 2.062,6.741 1.723,7.151 1.496,7.413 1.664,7.639 2.234,7.835 Z"
         inkscape:connector-curvature="0" /><path
         id="path270"
         style="fill:#8dc238;fill-rule:evenodd"
         d="M 2.953,7.444 2.746,7.577 C 2.883,7.358 3.75,7.014 5.344,6.538 4.73,6.428 4.379,6.354 4.285,6.311 4.535,6.202 4.98,6.135 5.617,6.116 5.504,5.424 6.859,4.999 9.684,4.85 9.617,4.588 9.445,4.405 9.172,4.296 8.922,4.21 8.648,4.202 8.352,4.264 8.328,4.483 8.125,4.655 7.734,4.784 7.348,4.936 7.043,4.956 6.812,4.85 6.699,4.807 6.598,4.6 6.508,4.233 6.414,3.971 6.211,3.874 5.891,3.94 5.844,4.155 5.832,4.307 5.855,4.393 5.355,3.983 5.07,3.983 5.004,4.393 5.027,4.956 4.992,5.28 4.902,5.366 4.719,5.542 4.379,5.573 3.875,5.463 3.309,5.272 2.93,5.174 2.75,5.174 2.953,5.456 3.203,5.69 3.5,5.889 3.227,6.256 3.078,6.635 3.055,7.022 2.531,6.936 2.328,7.034 2.441,7.315 2.555,7.639 2.723,7.682 2.953,7.444 Z"
         inkscape:connector-curvature="0" /><path
         id="path272"
         style="fill:#638727;fill-rule:evenodd"
         d="M 2.953,7.866 2.852,8.061 C 3.648,7.975 4.547,7.713 5.551,7.284 6.117,7.022 6.984,6.631 8.145,6.116 8.762,5.878 9.75,5.596 11.117,5.268 12.461,4.967 13.453,4.686 14.09,4.424 13.953,4.186 13.633,4.038 13.133,3.971 12.566,3.928 12.176,3.885 11.973,3.842 10.902,3.409 10.105,3.171 9.582,3.128 c 1.023,0.8 1.606,1.265 1.742,1.394 C 10.961,4.76 10.426,4.913 9.719,4.979 8.922,5.022 8.363,5.12 8.043,5.268 7.863,5.549 7.691,5.721 7.531,5.788 7.441,5.831 7.199,5.897 6.816,5.983 6.496,5.94 6.281,5.917 6.164,5.917 5.961,5.917 5.891,6.112 5.961,6.503 5.754,6.522 5.516,6.608 5.242,6.76 4.926,6.979 4.684,7.108 4.527,7.151 4.41,7.171 3.945,7.194 3.125,7.213 c -0.613,0 -1.012,0.122 -1.195,0.36 0.113,0.109 0.308,0.183 0.582,0.226 0.203,0.067 0.351,0.09 0.441,0.067 z"
         inkscape:connector-curvature="0" /><path
         id="path274"
         style="fill:#638727;fill-rule:evenodd"
         d="M 23.859,4.713 C 23.551,4.514 22.953,4.417 22.059,4.417 22.023,3.721 21.543,3.53 20.613,3.85 19.758,4.167 19.355,3.96 19.41,3.225 c -0.328,0.059 -0.844,0.086 -1.555,0.086 1.711,0.738 3.348,1.988 4.915,3.758 l -0.274,0.238 c 0.418,0.063 0.82,0.063 1.199,0 C 24.316,7.171 24.609,6.94 24.57,6.624 24.555,6.463 24.418,6.276 24.16,6.057 23.816,5.78 23.617,5.6 23.562,5.518 23.707,5.381 23.805,5.112 23.859,4.713 Z"
         inkscape:connector-curvature="0" /></g></g><metadata
     id="metadata4858"><rdf:RDF><cc:Work><dc:format>image/svg+xml</dc:format><dc:type
           rdf:resource="http://purl.org/dc/dcmitype/StillImage" /><cc:license
           rdf:resource="http://creativecommons.org/publicdomain/zero/1.0/" /><dc:publisher><cc:Agent
             rdf:about="http://openclipart.org/"><dc:title>Openclipart</dc:title></cc:Agent></dc:publisher><dc:title></dc:title></cc:Work><cc:License
         rdf:about="http://creativecommons.org/publicdomain/zero/1.0/"><cc:permits
           rdf:resource="http://creativecommons.org/ns#Reproduction" /><cc:permits
           rdf:resource="http://creativecommons.org/ns#Distribution" /><cc:permits
           rdf:resource="http://creativecommons.org/ns#DerivativeWorks" /></cc:License></rdf:RDF></metadata></svg>